<svg id="圖層_1" data-name="圖層 1" xmlns="http://www.w3.org/2000/svg" viewBox="0 0 583.66 145.17"><defs><style>.cls-1{fill:#78be8e;}.cls-2{fill:#2b9d39;}.cls-3{opacity:0.8;}.cls-4{fill:#fff;}.cls-5{opacity:0.7;}</style></defs><title>crayon</title><rect class="cls-1" x="260.9" y="-171.96" width="145.17" height="495.77" transform="translate(252.95 406.07) rotate(-90)"/><polygon class="cls-2" points="80.98 145.18 15.8 135.79 0 40.98 29.63 9.38 80.98 0 80.98 145.18"/><g class="cls-3"><path class="cls-4" d="M164.76,91l2.5-67.67,13.12.49-1,26.75,24.81.92,1-26.76,13,.49-2.51,67.67-13-.48,1.08-29.23L179,62.28l-1.08,29.23Z" transform="translate(-4.62 -3.33)"/><path class="cls-4" d="M242.84,95.19A14.74,14.74,0,0,1,235.25,93a13.49,13.49,0,0,1-4.94-5.63,16.71,16.71,0,0,1-1.52-7.92A14.34,14.34,0,0,1,236.08,67q7-4.28,21.93-5.36a12.92,12.92,0,0,0-.72-4.56,6.68,6.68,0,0,0-2.49-3.24,8.82,8.82,0,0,0-4.87-1.37,17.9,17.9,0,0,0-6.88,1.11,43.64,43.64,0,0,0-7,3.31l-4.27-9.12a42.8,42.8,0,0,1,6.32-3.15,45.62,45.62,0,0,1,7-2.16,29.22,29.22,0,0,1,7.57-.68,20.07,20.07,0,0,1,10.44,3,15.65,15.65,0,0,1,6.1,7.81,32.06,32.06,0,0,1,1.67,12.5l-1.11,29.86-10.63-.39L258.51,89l-.45,0A31.61,31.61,0,0,1,251,93.58,17.37,17.37,0,0,1,242.84,95.19Zm4.73-10.34a9.7,9.7,0,0,0,5.06-1.14,22.19,22.19,0,0,0,4.7-3.52L257.7,70a41.46,41.46,0,0,0-9.64,1.74,11.88,11.88,0,0,0-5.17,3.06,6.5,6.5,0,0,0-1.66,4.1,5.14,5.14,0,0,0,1.65,4.45A7.65,7.65,0,0,0,247.57,84.85Z" transform="translate(-4.62 -3.33)"/><path class="cls-4" d="M294.27,95.82l-15-51.77,13.11.49,6.24,25.74c.61,2.59,1.21,5.18,1.79,7.8s1.15,5.24,1.71,7.88l.44,0q1.11-3.9,2.28-7.74t2.28-7.64l8.21-25.21,12.49.46L309.33,96.38Z" transform="translate(-4.62 -3.33)"/><path class="cls-4" d="M354.46,99.33a24.65,24.65,0,0,1-12.37-3.66,23.24,23.24,0,0,1-8.56-9.55,29.41,29.41,0,0,1-2.79-14.55,30.55,30.55,0,0,1,2.32-11.08,25.36,25.36,0,0,1,5.54-8.25,23.51,23.51,0,0,1,7.64-5.11,20.36,20.36,0,0,1,8.61-1.56,19.74,19.74,0,0,1,11.31,3.58,19.4,19.4,0,0,1,6.64,8.93,32.21,32.21,0,0,1,1.88,12.74c-.05,1.22-.15,2.38-.31,3.51a18.71,18.71,0,0,1-.54,2.67l-30.57-1.13a16.39,16.39,0,0,0,2.14,7A11.73,11.73,0,0,0,350,87.32a15.19,15.19,0,0,0,6.6,1.67,18.42,18.42,0,0,0,5.7-.66,24.08,24.08,0,0,0,5.5-2.4l4.12,8.38a32.3,32.3,0,0,1-8.3,3.81A28.1,28.1,0,0,1,354.46,99.33ZM343.33,66.82l20.29.75a13.46,13.46,0,0,0-2-8.26q-2.15-3.14-7-3.32a10.26,10.26,0,0,0-4.92,1,10.61,10.61,0,0,0-4,3.6A15.87,15.87,0,0,0,343.33,66.82Z" transform="translate(-4.62 -3.33)"/><path class="cls-4" d="M426.79,100.73l2-55.25A25.47,25.47,0,0,1,430.92,36a14.55,14.55,0,0,1,5.75-6.6c2.56-1.58,5.92-2.29,10.05-2.14a25,25,0,0,1,5.39.75,30.57,30.57,0,0,1,4,1.34l-2.77,10a12,12,0,0,0-5.27-1.39,5.45,5.45,0,0,0-4.5,1.76q-1.67,1.84-1.82,6.06l-2.06,55.52Zm-5.23-40.8.37-10,7.46-.36,21.71.8L450.71,61Z" transform="translate(-4.62 -3.33)"/><path class="cls-4" d="M472.27,103.7q-8.06-.3-11.49-5.87t-3.07-15.25l1.18-31.87,12.94.48-1.12,30.23q-.22,5.94,1.37,8.37c1.06,1.63,2.84,2.48,5.32,2.58a9.3,9.3,0,0,0,5.32-1.32,19.78,19.78,0,0,0,4.92-4.71l1.28-34.52,13,.49-1.89,51.14-10.63-.4-.7-7.43h-.35a29.29,29.29,0,0,1-7.15,6A16.2,16.2,0,0,1,472.27,103.7Z" transform="translate(-4.62 -3.33)"/><path class="cls-4" d="M514,104l1.89-51.14,10.63.39.73,6.8h.26a38.35,38.35,0,0,1,7.39-5.4,16.88,16.88,0,0,1,9-2q8.07.3,11.5,5.87t3.07,15.25l-1.18,31.87-13-.49,1.12-30.22q.23-5.94-1.32-8.37t-5.28-2.58a9.49,9.49,0,0,0-5.32,1.27,29.58,29.58,0,0,0-5.17,4.1L527,104.44Z" transform="translate(-4.62 -3.33)"/></g><g class="cls-5"><rect class="cls-4" x="152.08" y="118.06" width="388.13" height="3.87"/></g><polygon class="cls-2" points="573.79 145.18 583.66 145.18 583.66 0 567.86 0 573.79 145.18"/></svg>