<svg id="圖層_1" data-name="圖層 1" xmlns="http://www.w3.org/2000/svg" viewBox="0 0 112.77 226.57"><defs><style>.cls-1{fill:#fff;}.cls-2{fill:#2a2b2b;}.cls-3{fill:#2951a3;}.cls-4{fill:none;}.cls-5{fill:#3f3e3f;}</style></defs><title>eraser</title><polygon class="cls-1" points="1.15 1.04 1.15 64.62 111.92 64.62 111.92 23.11 90.76 1.04 1.15 1.04"/><rect class="cls-2" x="1" y="60.7" width="110.77" height="165.87"/><rect class="cls-1" x="37.98" y="60.7" width="37.79" height="165.87"/><rect class="cls-3" x="73.77" y="60.7" width="37.79" height="165.87"/><path class="cls-2" d="M56.92,125.67q-1.8,0-2-1.23,0-.21-.39-3.9c-.15-1.49-.34-3.7-.55-6.65a2.55,2.55,0,0,0-1.75,1.61,5.83,5.83,0,0,0-.5,2.49,7.48,7.48,0,0,0,.85,3.38l.85,1.43a5.19,5.19,0,0,1-1.81,1.33,6.55,6.55,0,0,1-2.07.94c-.08,0-.22-.1-.41-.29-1.55-1.53-2.32-3.92-2.32-7.15a10.49,10.49,0,0,1,2.46-7.25,8.51,8.51,0,0,1,6.69-2.83A9,9,0,0,1,65.3,117a8.48,8.48,0,0,1-2.48,6.15A8,8,0,0,1,56.92,125.67Zm1.08-6.6a2.63,2.63,0,0,0,1.93-.84,2.67,2.67,0,0,0,.83-2,2.43,2.43,0,0,0-.94-2,3.06,3.06,0,0,0-2-.72c-.32,0-.48.18-.48.53a33.72,33.72,0,0,0,.41,4.34C57.77,118.86,57.87,119.07,58,119.07Z" transform="translate(-0.53 -6.81)"/><path class="cls-2" d="M47.81,146.5c-.32,0-.5-.17-.55-.53s-.07-1.27-.07-2.75a23.42,23.42,0,0,1,.1-2.94.66.66,0,0,1,.73-.57c.56,0,1.39,0,2.52.06s2,0,2.53,0,1.09,0,2,0l2,0q2.43,0,2.43-2.25a3.38,3.38,0,0,0-.61-1.72c-.44-.7-.89-1.05-1.33-1.05H47.91a.59.59,0,0,1-.65-.59c0-.44-.07-1.34-.07-2.7a23.92,23.92,0,0,1,.1-2.86c.06-.39.26-.59.59-.59L52,128l4.19,0a25.76,25.76,0,0,0,6.93-.74,1.51,1.51,0,0,1,.26,0,.39.39,0,0,1,.39.29c.08.79.21,1.85.39,3.17.37,2,.55,3.12.55,3.38s-.4.24-1.2.32-1.19.18-1.19.32c0-.14.41.54,1.23,2a8.37,8.37,0,0,1,1.23,3.91,7.07,7.07,0,0,1-1.06,4,3.89,3.89,0,0,1-3.4,1.79H54.7l-3.44,0C49.72,146.5,48.58,146.5,47.81,146.5Z" transform="translate(-0.53 -6.81)"/><path class="cls-2" d="M51,157.09a9.39,9.39,0,0,1-5.51-1.34q-2-1.49-2.76-5.15a12.53,12.53,0,0,1-.22-2.36c0-.5,1-.76,3.07-.76,1,0,1.59.17,1.68.49a4.8,4.8,0,0,0,.84,1.89,3.13,3.13,0,0,0,2,.55c.64,0,2.27.06,4.9.06a48.93,48.93,0,0,0,8.49-.68,1.15,1.15,0,0,1,.24,0c.3,0,.45.17.45.53,0,1.25,0,2.23.1,2.92.22,2,.32,3.11.32,3.3s-.15.42-.46.46q-.85.11-6.93.11Zm17.74.15c-2,0-3-1.24-3-3.74a4.35,4.35,0,0,1,.72-2.6,2.62,2.62,0,0,1,2.25-1.11A2.68,2.68,0,0,1,71,150.94a4.61,4.61,0,0,1,0,5.13A2.64,2.64,0,0,1,68.77,157.24Z" transform="translate(-0.53 -6.81)"/><path class="cls-2" d="M56,178.55a8.63,8.63,0,0,1-6.55-2.64,10.69,10.69,0,0,1,0-13.74,8.28,8.28,0,0,1,6.38-2.68,9,9,0,0,1,6.67,2.56A9.39,9.39,0,0,1,65,169a9.61,9.61,0,0,1-2.5,6.9A8.58,8.58,0,0,1,56,178.55Zm0-6.19a3.68,3.68,0,0,0,2.48-.93A3,3,0,0,0,59.56,169a3.13,3.13,0,0,0-1.1-2.46,3.8,3.8,0,0,0-4.91,0,3.13,3.13,0,0,0-1.1,2.46,3.1,3.1,0,0,0,1.1,2.43A3.67,3.67,0,0,0,56,172.36Z" transform="translate(-0.53 -6.81)"/><path class="cls-2" d="M59.93,199.36a21.14,21.14,0,0,1-4.18-.23A51.19,51.19,0,0,1,49.33,195q-.87-.6-4-3.11a30.34,30.34,0,0,1-3.67-3.15q-.27-.47-.27-5.8a2.24,2.24,0,0,1,.18-1.09c.49-.17,1.06-.37,1.72-.63l1.26-.6a3.78,3.78,0,0,1,1.22-.43c.23,0,.34.1.34.32,0,3.5.75,5.24,2.25,5.24a31.68,31.68,0,0,0,3.53-2.56,21.34,21.34,0,0,1,4.32-2.93,22.86,22.86,0,0,1,3.67-.15c.42,0,1.07,0,1.92,0l1.93,0c.3,0,.46.2.46.62,0,.64,0,1.61-.06,2.92s0,2.27,0,2.91c0,.27-.18.4-.55.4s-.83,0-1.5-.06-1.16-.06-1.49-.06c-1.49,0-2.5,0-3,.08a7.09,7.09,0,0,0-2.3,1.13c-1.17.76-1.75,1.3-1.75,1.64s.58.78,1.73,1.48a8,8,0,0,0,2.22,1,27.41,27.41,0,0,0,3.38.19c.32,0,.81,0,1.46-.09a14.64,14.64,0,0,1,1.47-.1c.22,0,.33.14.33.4,0,.64,0,1.6.08,2.88s.07,2.23.07,2.88a.67.67,0,0,1-.46.66A16.59,16.59,0,0,1,59.93,199.36Z" transform="translate(-0.53 -6.81)"/><polygon class="cls-4" points="4.15 61.57 110.77 61.57 110.77 21.47 90.19 0 2 0 2 56.55 4.15 56.55 4.15 61.57"/><path class="cls-5" d="M113.3,29.47,91.87,7.12a1,1,0,0,0-.72-.31H1.53a1,1,0,0,0-1,1V64.36a1,1,0,0,0,1,1h0a1,1,0,0,0,1-1V9.81a1,1,0,0,1,1-1H90.3a1,1,0,0,1,.72.31l19.47,20.31a1,1,0,0,0,.72.31h2.09Z" transform="translate(-0.53 -6.81)"/><rect class="cls-5" x="110.77" y="24.08" width="2" height="35.32" rx="0.84"/></svg>