<?xml version="1.0" encoding="utf-8"?>
<!-- Generator: Adobe Illustrator 23.1.0, SVG Export Plug-In . SVG Version: 6.00 Build 0)  -->
<svg version="1.1" id="圖層_1" xmlns="http://www.w3.org/2000/svg" xmlns:xlink="http://www.w3.org/1999/xlink" x="0px" y="0px"
	 viewBox="0 0 286.1 56.8" style="enable-background:new 0 0 286.1 56.8;" xml:space="preserve">
<style type="text/css">
	.st0{fill:#231815;}
	.st1{fill:#040000;}
</style>
<title>logo</title>
<path class="st0" d="M13.8,46.6V32.9L0,10.2l13.4,0.1l6.7,11.9h0.6l6.8-11.9h13.2L26.8,32.8v13.8L13.8,46.6z"/>
<path class="st0" d="M43.1,29.3V10.2h12.6v18.4c0,5.2,1.9,7.7,5.7,7.8c3.8,0,5.7-2.5,5.7-7.5V10.2h12.7v18.9
	c0,6.1-1.6,10.7-4.9,13.7c-3.3,3-7.8,4.5-13.5,4.6c-5.8,0-10.3-1.5-13.5-4.5C44.7,39.9,43.1,35.4,43.1,29.3z"/>
<path class="st0" d="M117.7,47.9L98.1,32.6h-0.5v14H85V8.9h1.4l19.6,15.4h0.5V10.2H119v37.7H117.7z"/>
<path class="st1" d="M257.8,56.7H157.2c-15.7-0.3-28.1-13.2-27.9-28.9c0.3-15.3,12.6-27.6,27.9-27.9h100.6
	c15.7-0.3,28.6,12.2,28.9,27.9c0.3,15.7-12.2,28.6-27.9,28.9C258.5,56.8,258.1,56.8,257.8,56.7z M157.2,6
	c-12.4,0.3-22.2,10.5-21.9,22.9c0.3,12,9.9,21.7,21.9,21.9h100.6c12.4,0.3,22.6-9.5,22.9-21.9c0.3-12.4-9.5-22.6-21.9-22.9
	c-0.3,0-0.6,0-0.9,0H157.2z"/>
<path class="st1" d="M151.1,17.4l5.3,20.1h1.4l5.3-20.1h5.9l-5.9,21.5h-12l-5.9-21.5H151.1z"/>
<path class="st1" d="M181.1,22.5v11.3h4.9v5.1h-15.7v-5.1h4.9V22.5h-4.9v-5.1H186v5.1H181.1z"/>
<path class="st1" d="M197.3,39.2c-7.8,0-11-3.1-11-8.7h5.8c0,2.6,1.2,3.6,5.4,3.6c2.9,0,3.5-0.4,3.5-1.1c0-1-2.2-1.7-5.2-2.8
	c-4.7-1.6-8.6-2.9-8.6-7.3c0-3.8,3.1-5.9,8.8-5.9c6.7,0,10,3.1,10,7.7h-5.8c0-2.2-1.7-2.6-4.1-2.6c-1.9,0-3,0.3-3,1s0,0.7,3.4,1.9
	c3.9,1.3,10.4,3.1,10.4,7.7C206.9,36.6,204,39.2,197.3,39.2z"/>
<path class="st1" d="M218.3,22.5v11.3h4.9v5.1h-15.6v-5.1h4.9V22.5h-4.9v-5.1h15.6v5.1H218.3z"/>
<path class="st1" d="M234.7,17c7,0,11.3,4.8,11.3,11s-4.3,11.1-11.3,11.1s-11.4-4.8-11.4-11.1S227.6,17,234.7,17z M234.7,34
	c3.7,0,5.5-2.2,5.5-6s-1.8-5.9-5.5-5.9s-5.5,2.2-5.5,5.9S231,34,234.7,34z"/>
<path class="st1" d="M247.8,17.4h11.4l4.8,20.1h1.4l-1.1-3.5V17.4h5.8v21.5h-11.5l-4.8-20.1h-1.4l1.1,3.5v16.5h-5.8L247.8,17.4z"/>
</svg>
