<svg id="圖層_1" data-name="圖層 1" xmlns="http://www.w3.org/2000/svg" viewBox="0 0 286.71 56.88"><defs><style>.cls-1{fill:#fff;}</style></defs><title>logo-w</title><path class="cls-1" d="M13.8,46.6V32.9L0,10.2l13.4.1,6.7,11.9h.6l6.8-11.9H40.7L26.8,32.8V46.6Z" transform="translate(0 0.11)"/><path class="cls-1" d="M43.1,29.3V10.2H55.7V28.6c0,5.2,1.9,7.7,5.7,7.8s5.7-2.5,5.7-7.5V10.2H79.8V29.1c0,6.1-1.6,10.7-4.9,13.7s-7.8,4.5-13.5,4.6-10.3-1.5-13.5-4.5S43.1,35.4,43.1,29.3Z" transform="translate(0 0.11)"/><path class="cls-1" d="M117.7,47.9,98.1,32.6h-.5v14H85V8.9h1.4L106,24.3h.5V10.2H119V47.9Z" transform="translate(0 0.11)"/><path class="cls-1" d="M257.8,56.7H157.2a28.4,28.4,0,0,1,0-56.8H257.8a28.4,28.4,0,1,1,1,56.8A1.7,1.7,0,0,1,257.8,56.7ZM157.2,6a22.41,22.41,0,0,0,0,44.8H257.8a22.41,22.41,0,0,0,1-44.8H157.2Z" transform="translate(0 0.11)"/><path class="cls-1" d="M151.1,17.4l5.3,20.1h1.4l5.3-20.1H169l-5.9,21.5h-12l-5.9-21.5Z" transform="translate(0 0.11)"/><path class="cls-1" d="M181.1,22.5V33.8H186v5.1H170.3V33.8h4.9V22.5h-4.9V17.4H186v5.1Z" transform="translate(0 0.11)"/><path class="cls-1" d="M197.3,39.2c-7.8,0-11-3.1-11-8.7h5.8c0,2.6,1.2,3.6,5.4,3.6,2.9,0,3.5-.4,3.5-1.1,0-1-2.2-1.7-5.2-2.8-4.7-1.6-8.6-2.9-8.6-7.3,0-3.8,3.1-5.9,8.8-5.9,6.7,0,10,3.1,10,7.7h-5.8c0-2.2-1.7-2.6-4.1-2.6-1.9,0-3,.3-3,1s0,.7,3.4,1.9c3.9,1.3,10.4,3.1,10.4,7.7C206.9,36.6,204,39.2,197.3,39.2Z" transform="translate(0 0.11)"/><path class="cls-1" d="M218.3,22.5V33.8h4.9v5.1H207.6V33.8h4.9V22.5h-4.9V17.4h15.6v5.1Z" transform="translate(0 0.11)"/><path class="cls-1" d="M234.7,17c7,0,11.3,4.8,11.3,11s-4.3,11.1-11.3,11.1S223.3,34.3,223.3,28,227.6,17,234.7,17Zm0,17c3.7,0,5.5-2.2,5.5-6s-1.8-5.9-5.5-5.9-5.5,2.2-5.5,5.9S231,34,234.7,34Z" transform="translate(0 0.11)"/><path class="cls-1" d="M247.8,17.4h11.4L264,37.5h1.4L264.3,34V17.4h5.8V38.9H258.6l-4.8-20.1h-1.4l1.1,3.5V38.8h-5.8Z" transform="translate(0 0.11)"/></svg>