<?xml version="1.0" encoding="utf-8"?>
<!-- Generator: Adobe Illustrator 23.1.0, SVG Export Plug-In . SVG Version: 6.00 Build 0)  -->
<svg version="1.1" id="圖層_1" xmlns="http://www.w3.org/2000/svg" xmlns:xlink="http://www.w3.org/1999/xlink" x="0px" y="0px"
	 viewBox="0 0 414 155.4" style="enable-background:new 0 0 414 155.4;" xml:space="preserve">
<style type="text/css">
	.st0{fill:#B8BEC1;}
	.st1{fill:#040000;}
	.st2{fill:none;stroke:#040000;stroke-miterlimit:10;}
</style>
<title>paper clip</title>
<path class="st0" d="M269.8,37.4c0,8.3,0.1,15.5,0.1,23.9c-3.3-0.2-6.7-0.7-10-0.7c-50.1,0.2-100.2,0.4-150.3,0.7
	c-9.2,0-16.2,4.3-20,12.6c-5.7,12.4,4,25.4,18.9,25.5c20.4,0.1,40.8-0.2,61.2-0.3l190.1-1c15.6-0.1,25.6-7.7,29.9-22.9
	c2.9-10.1,2.3-20.8-1.9-30.5c-5-11.8-14-18-27-18l-57.9,0.3c-72.2,0.4-144.3,0.7-216.5,1.1c-15.6,0.1-30.1,3.7-41.6,14.9
	c-20,19.4-23.2,54.8,4.8,77.4c10.8,8.8,23.4,12.4,37.3,12.3c79.3-0.5,158.6-0.9,237.9-1.3l33.3-0.2c0.9,0,1.9,0.1,2.8,0.1
	c-0.1,7.5-0.1,14.8-0.2,22.8c-10.4-0.1-21-0.2-31.6-0.1c-70.1,0.3-140.2,0.7-210.4,1c-13.8,0.1-27.6,0.6-41.3-0.3
	c-36.1-2.4-66.5-31.2-70.3-66C2.7,48.1,29.8,12.7,70.5,7C83.2,5.3,96,5.7,108.8,5.6c82.9-0.5,165.9-0.5,248.8-1.5
	c31.1-0.4,51,19.7,55.4,47.2c2.9,18.5-0.4,35.8-12.3,50.9c-10.3,13-24.1,18.4-40.3,18.5c-21.6,0.1-43.2,0.3-64.8,0.3
	c-62.3,0.3-124.6,0.6-186.9,0.9c-18.9,0.1-36.1-11.9-41.4-28.7c-8.3-26.5,12.3-54.2,40.9-54.5c32.1-0.4,64.2-0.4,96.3-0.5
	c19.9-0.1,39.8-0.2,59.7-0.3C266.1,37.8,267.9,37.7,269.8,37.4z"/>
<path class="st1" d="M411.6,46.7C406.7,17.6,385-0.3,354.9,0c-55.3,0.5-111.4,0.6-165.8,0.7c-28.1,0-57.2,0.1-85.8,0.2h-7.1
	C85.8,0.9,75,0.9,64.6,2.3C28.6,7,3.1,33.7,0,67.2h1C4.2,34.3,29.3,7.9,64.7,3.3c9-1,18.1-1.5,27.1-1.3h4.4c2.4,0,4.7,0,7.1,0
	c28.6-0.1,57.7-0.2,85.8-0.2C243.5,1.6,299.7,1.5,355,1h0.7c29.2,0,50.2,17.5,54.9,45.9c3.2,19-1,35.6-12.2,49.4
	c-9.8,11.9-23,17.8-40.4,17.9c-16.2,0.1-32.4,0.1-48.6,0.2l-58.6,0.2l-147.4,0.4h-0.1c-18.7,0-36-11.7-41.3-27.8
	c-3.9-12.1-1.6-25.3,6.2-35.3c4.3-5.7,9.9-10.3,16.4-13.3l0.7-1.4c-7.1,3-13.4,7.9-18,14.1C59.4,61.4,57,75,61,87.3
	c5.4,16.6,23.1,28.6,42.3,28.6h0.1l147.4-0.4l58.5-0.2c16.2,0,32.4-0.1,48.6-0.2c17.4-0.1,31.3-6.3,41.2-18.3
	C410.6,82.9,414.8,66,411.6,46.7z"/>
<path class="st1" d="M348.4,146.9c-7.2-0.1-14.6-0.1-22-0.1l-96.6,0.3c-38.7,0.1-77.4,0.2-116.1,0.3c-3.5,0-6.9,0-10.4,0.1
	c-10.3,0.1-20.9,0.2-31.3-0.5C39,144.8,10.1,120.7,2.7,90.7H1.6c3.6,14.1,11.3,26.9,22.1,36.6C37,139.4,54,146.7,71.9,147.9
	c6.5,0.4,13.1,0.6,19.7,0.6c3.9,0,7.8,0,11.7-0.1c3.5,0,6.9-0.1,10.4-0.1c38.7-0.1,77.4-0.2,116.1-0.3l96.6-0.3c7.3,0,14.8,0,22,0.1
	l7.3,0.1v-1L348.4,146.9z"/>
<line class="st2" x1="107.7" y1="28.1" x2="355.6" y2="26.9"/>
</svg>
