<svg id="圖層_1" data-name="圖層 1" xmlns="http://www.w3.org/2000/svg" viewBox="0 0 1612.13 174.32"><defs><style>.cls-1{fill:#dbbfb4;}.cls-2{fill:#040000;}.cls-3{fill:#e3cc5c;}.cls-4,.cls-6{fill:none;stroke:#373635;stroke-linecap:round;stroke-linejoin:round;}.cls-4{stroke-width:5px;}.cls-5{fill:#9b999a;}.cls-6{stroke-width:4px;}.cls-7{fill:#373635;}.cls-8{fill:#d46051;}</style></defs><title>pencil</title><polygon class="cls-1" points="231.42 8.51 227.92 174.32 81.7 117.49 82.01 63.27 231.42 8.51"/><polygon class="cls-2" points="79.78 65.52 79.45 118.14 0 88.11 79.78 65.52"/><polygon class="cls-3" points="1451.33 0.87 1454.62 170.54 231.42 174.32 234.27 3.93 1451.33 0.87"/><line class="cls-4" x1="1432.88" y1="138.22" x2="244.54" y2="151.96"/><polygon class="cls-5" points="1458.88 1.03 1461.83 169.68 1507.07 169.46 1504.99 1.33 1458.88 1.03"/><line class="cls-6" x1="1483.37" y1="62.9" x2="1486.53" y2="167.73"/><line class="cls-6" x1="1482.06" y1="2.98" x2="1483.37" y2="46.45"/><path class="cls-7" d="M258.29,85.34a2.79,2.79,0,0,0-2.65,2.93,2.64,2.64,0,0,0,0,.29,2.77,2.77,0,0,0,2.71,2.58l285.5-4-.61-5.8Z" transform="translate(-10.64 -8.86)"/><path class="cls-7" d="M1446.71,77.4a2.91,2.91,0,0,0-.08-5.8L564.24,81.8l.61,5.8Z" transform="translate(-10.64 -8.86)"/><path class="cls-8" d="M1522.43,177,1519,9.44l69.12-.56c16.5-.62,30.38,13.33,31,31.15l3.67,103c.63,17.82-12.23,32.77-28.72,33.39Z" transform="translate(-10.64 -8.86)"/></svg>