<svg id="圖層_1" data-name="圖層 1" xmlns="http://www.w3.org/2000/svg" viewBox="0 0 382.58 212.42"><defs><style>.cls-1{fill:#dbbfb4;opacity:0.9;}.cls-2{fill:#e3cc5c;}</style></defs><title>pencil-shavings</title><polygon class="cls-1" points="243.59 3.11 375.24 97.44 343.11 112.99 341.03 148.23 305.79 144.09 287.13 173.11 256.03 158.6 223.9 192.81 207.31 176.22 185.54 200.06 171.03 185.55 146.16 204.21 133.72 191.77 97.44 188.66 102.62 175.18 175.18 27.99 68.41 180.37 63.23 152.38 22.8 147.19 32.13 115.06 7.25 104.69 16.58 78.78 188.66 0 200.06 30.06 214.57 17.62 228.04 39.39 228.04 8.29 246.7 20.73 243.59 3.11"/><polygon class="cls-2" points="15.42 152.04 58.34 157.54 62.31 188.68 71.78 175.56 73.47 173.14 71.78 166.88 71.56 165.86 70.26 158.83 70.26 158.83 70.26 158.83 68.11 147.21 30.19 142.35 39.08 111.73 14.51 101.5 20.95 76.78 10.45 80.42 0 107.89 25.18 118.39 15.42 152.04"/><polygon class="cls-2" points="343.36 109.92 341.45 142.45 308.69 138.6 290.8 166.42 260.48 152.27 229.56 185.19 212.91 168.55 191.15 192.39 177.36 178.6 152.48 197.26 142.08 186.86 111.31 184.23 99.51 182.96 95.12 194.36 136.93 197.95 151.4 212.42 176.28 193.76 191.52 209 213.29 185.16 229.81 201.69 263.16 166.19 295.04 181.07 314.46 150.84 352.19 155.28 354.43 117.32 382.58 103.7 371 94.4 343.36 109.92"/></svg>