<svg id="圖層_1" data-name="圖層 1" xmlns="http://www.w3.org/2000/svg" viewBox="0 0 371.49 462.1"><defs><style>.cls-1{fill:#fff;}.cls-2{fill:#292b2b;}.cls-3{fill:#294d98;}.cls-4{fill:none;}.cls-5{fill:#3f3e3f;}.cls-18,.cls-6{opacity:0.9;}.cls-18,.cls-6,.cls-9{isolation:isolate;}.cls-7{fill:#be667d;}.cls-8{fill:#c78193;}.cls-21,.cls-9{opacity:0.8;}.cls-10{fill:#070404;}.cls-11,.cls-18{fill:#d9bdb2;}.cls-12{fill:#070001;}.cls-13{fill:#dbc65e;}.cls-14{fill:#373635;}.cls-15{fill:#9b999a;}.cls-16{fill:#ca5e50;}.cls-17{fill:#b8bdc0;}.cls-19{fill:#76b78a;}.cls-20{fill:#2e9639;}.cls-22{opacity:0.7;}.cls-23{fill:#8eccea;}.cls-24{fill:#040000;}</style></defs><title>phone</title><polygon class="cls-1" points="236.89 461.42 274.37 460.78 273.25 395.46 248.78 395.88 235.98 408.58 236.89 461.42"/><rect class="cls-2" x="274.26" y="538.05" width="97.81" height="65.32" transform="translate(-12.5 -137.68) rotate(-0.98)"/><rect class="cls-1" x="274.26" y="559.28" width="97.81" height="22.28" transform="translate(-12.5 -137.68) rotate(-0.98)"/><rect class="cls-3" x="273.89" y="538.18" width="97.81" height="22.28" transform="translate(-12.14 -137.69) rotate(-0.98)"/><path class="cls-2" d="M308.56,571c0,.71-.22,1.11-.71,1.19l-2.29.27c-.88.1-2.18.24-3.92.39a1.52,1.52,0,0,0,1,1,3.4,3.4,0,0,0,1.47.27,4.45,4.45,0,0,0,2-.54l.83-.51a3.19,3.19,0,0,1,.81,1.05,4,4,0,0,1,.57,1.21c0,.05-.06.13-.17.25a5.71,5.71,0,0,1-4.19,1.44,6.22,6.22,0,0,1-4.3-1.38,5,5,0,0,1-1.73-3.92,5.3,5.3,0,0,1,5-5.59h.47a5,5,0,0,1,3.65,1.4A4.68,4.68,0,0,1,308.56,571Zm-3.9-.57a1.58,1.58,0,0,0-.52-1.13,1.55,1.55,0,0,0-1.19-.47,1.41,1.41,0,0,0-1.16.58,1.75,1.75,0,0,0-.41,1.18c0,.19.11.28.32.28a19.7,19.7,0,0,0,2.55-.29C304.54,570.53,304.66,570.47,304.66,570.39Z" transform="translate(-2.76 -143.3)"/><path class="cls-2" d="M320.93,576.12q0,.28-.3.33c-.22,0-.75,0-1.62.07a12.64,12.64,0,0,1-1.74,0,.38.38,0,0,1-.34-.42c0-.33,0-.82,0-1.49s0-1.18,0-1.49l0-1.18,0-1.18c0-1-.47-1.43-1.35-1.41a2,2,0,0,0-1,.38c-.41.26-.61.53-.6.79l.09,5.69a.35.35,0,0,1-.3.39h0c-.26,0-.79,0-1.59.07a15.93,15.93,0,0,1-1.69,0c-.23,0-.35-.15-.35-.34l0-2.43,0-2.47a14.78,14.78,0,0,0-.51-4.08v-.15a.25.25,0,0,1,.17-.24c.46,0,1.09-.14,1.86-.26,1.18-.24,1.84-.36,2-.36s.15.24.2.71.12.7.2.69a6.51,6.51,0,0,1,1.17-.74,5.08,5.08,0,0,1,2.29-.77,4.19,4.19,0,0,1,2.37.59,2.29,2.29,0,0,1,1.09,2l.06,3.31,0,2C320.91,575,320.93,575.67,320.93,576.12Z" transform="translate(-2.76 -143.3)"/><path class="cls-2" d="M327.14,574.13a5.5,5.5,0,0,1-.73,3.27,4.84,4.84,0,0,1-3,1.67,7.22,7.22,0,0,1-1.39.16c-.29,0-.46-.58-.48-1.8,0-.59.09-.94.28-1a2.84,2.84,0,0,0,1.1-.51,1.92,1.92,0,0,0,.31-1.19c0-.38,0-1.34,0-2.89a28.91,28.91,0,0,0-.49-5v-.14c0-.18.1-.27.31-.27a12.57,12.57,0,0,0,1.72-.09c1.18-.15,1.83-.22,1.94-.22a.29.29,0,0,1,.28.27c.05.33.09,1.69.13,4.08Zm-.09-10.46c0,1.18-.7,1.78-2.17,1.81a2.62,2.62,0,0,1-1.54-.4,1.54,1.54,0,0,1-.68-1.32,1.58,1.58,0,0,1,.66-1.36,2.7,2.7,0,0,1,3,0,1.57,1.57,0,0,1,.71,1.3Z" transform="translate(-2.76 -143.3)"/><path class="cls-2" d="M339.75,571a5.1,5.1,0,0,1-1.49,3.89,6.32,6.32,0,0,1-8.1.14,4.9,4.9,0,0,1-1.65-3.74,5.37,5.37,0,0,1,1.44-4,5.51,5.51,0,0,1,4.08-1.54,5.69,5.69,0,0,1,4.09,1.4A5.1,5.1,0,0,1,339.75,571Zm-3.65.06a2.16,2.16,0,0,0-.58-1.45,1.73,1.73,0,0,0-1.44-.61,1.82,1.82,0,0,0-1.44.67,2.24,2.24,0,0,0,.05,2.89,1.86,1.86,0,0,0,1.46.63,1.82,1.82,0,0,0,1.42-.68A2.15,2.15,0,0,0,336.1,571Z" transform="translate(-2.76 -143.3)"/><path class="cls-2" d="M352,568.44a12,12,0,0,1-.1,2.47,28.93,28.93,0,0,1-2.37,3.82c-.23.35-.82,1.15-1.79,2.39a18.33,18.33,0,0,1-1.82,2.2,16.78,16.78,0,0,1-3.42.22,1.27,1.27,0,0,1-.64-.1c-.11-.28-.23-.62-.39-1l-.37-.73a2.08,2.08,0,0,1-.26-.72c0-.13.05-.2.18-.2,2.07,0,3.09-.5,3.07-1.38a18.18,18.18,0,0,0-1.55-2.06,12.63,12.63,0,0,1-1.77-2.51,13.1,13.1,0,0,1-.12-2.17l0-1.13,0-1.14c0-.17.11-.27.36-.27s.95,0,1.72,0,1.34,0,1.72,0c.16,0,.24.11.24.32s0,.49,0,.89,0,.68,0,.88a12.94,12.94,0,0,0,.08,1.77,4.07,4.07,0,0,0,.69,1.34c.46.68.78,1,1,1s.45-.35.86-1a4.82,4.82,0,0,0,.56-1.32,14.72,14.72,0,0,0,.08-2,5.44,5.44,0,0,0-.07-.86,8.5,8.5,0,0,1-.07-.87c0-.13.08-.19.23-.2.38,0,.94,0,1.7-.07s1.31-.07,1.7-.07a.39.39,0,0,1,.39.26A9.81,9.81,0,0,1,352,568.44Z" transform="translate(-2.76 -143.3)"/><polygon class="cls-4" points="272.55 459.04 271.47 396.17 247.82 396.58 235.37 408.93 236.26 460.93 269.61 460.36 269.58 459.09 272.55 459.04"/><path class="cls-5" d="M251.27,538.69l-13,12.86a.6.6,0,0,0-.18.43l.91,52.84a.58.58,0,0,0,.6.58l33.34-.57a.59.59,0,0,0,.58-.6h0a.58.58,0,0,0-.6-.58l-32.16.55a.58.58,0,0,1-.6-.58l-.88-51.16a.6.6,0,0,1,.18-.43l11.77-11.68a.58.58,0,0,0,.18-.43l0-1.23Z" transform="translate(-2.76 -143.3)"/><rect class="cls-5" x="252.11" y="538.5" width="20.83" height="1.18" rx="0.5" transform="translate(-11.97 -138.72) rotate(-0.98)"/><g class="cls-6"><rect class="cls-7" x="12.47" y="215.06" width="7.42" height="46.35" transform="translate(-32.94 -139.31) rotate(-7.31)"/></g><g class="cls-6"><rect class="cls-8" x="47.24" y="300.65" width="31.24" height="301.82" transform="translate(-59.7 -131.64) rotate(-7.31)"/></g><g class="cls-6"><rect class="cls-8" x="21.5" y="203.55" width="35.19" height="115.58" transform="translate(-35.69 -136.21) rotate(-7.31)"/></g><g class="cls-9"><path class="cls-10" d="M63.92,317.44l-34.31,4.4a1,1,0,1,1-.26-2l34.31-4.4a1,1,0,0,1,.26,2Z" transform="translate(-2.76 -143.3)"/></g><g class="cls-6"><rect class="cls-8" x="12.06" y="206.65" width="6.24" height="125.82" transform="translate(-36.93 -139.18) rotate(-7.31)"/></g><polygon class="cls-11" points="131.13 389.08 163.64 382.38 162.21 425.58 151.63 428 131.13 389.08"/><polygon class="cls-12" points="152.22 428.52 162.49 426.17 161.88 449.61 152.22 428.52"/><polygon class="cls-13" points="49.25 50.98 82.07 42.22 163.41 381.41 130.05 388.5 49.25 50.98"/><path class="cls-14" d="M161.45,522a.65.65,0,0,1-.32.81c-.27.07-.56-.18-.66-.57l-81-329.06h0c-.09-.38.05-.74.31-.81s.57.19.66.57l81,329.06Z" transform="translate(-2.76 -143.3)"/><polygon class="cls-15" points="48.78 48.88 81.43 40.26 78.41 27.72 45.8 36.07 48.78 48.88"/><path class="cls-14" d="M82.58,176.71a.51.51,0,0,1-.25.64l-20.21,5.73c-.21.06-.44-.14-.52-.44a.52.52,0,0,1,.24-.67L82,176.25c.22-.06.45.14.53.44Z" transform="translate(-2.76 -143.3)"/><path class="cls-14" d="M59.17,183.2a.52.52,0,0,1-.25.64l-8.38,2.37c-.21.06-.45-.13-.53-.44s0-.6.25-.66l8.37-2.37c.22-.06.45.13.53.44Z" transform="translate(-2.76 -143.3)"/><path class="cls-14" d="M146.06,524.74c.11.42.45.69.74.6h0l.06,0a.72.72,0,0,0,.32-.87l-19.59-79-1.09.44Z" transform="translate(-2.76 -143.3)"/><path class="cls-14" d="M66.2,195.39c-.14-.44-.49-.7-.79-.58a.75.75,0,0,0-.34.87L125.21,440l1.08-.44Z" transform="translate(-2.76 -143.3)"/><path class="cls-16" d="M80.6,169.77l-32.4,8.71-4.66-19.16c-1.21-4.54.59-9,4-10l19.81-5.78c3.43-1,7.19,1.88,8.4,6.43Z" transform="translate(-2.76 -143.3)"/><path class="cls-17" d="M341.55,510c0,1.88,0,3.52,0,5.42-.75,0-1.52-.16-2.27-.16q-17,.07-34.09.16a4.69,4.69,0,0,0-4.53,2.86c-1.3,2.81.9,5.76,4.28,5.78,4.63,0,9.26,0,13.88-.06l43.12-.23a6.48,6.48,0,0,0,6.78-5.2,10.15,10.15,0,0,0-.43-6.91,6.18,6.18,0,0,0-6.12-4.09l-13.13.07-49.11.25c-3.54,0-6.83.84-9.44,3.38a11.55,11.55,0,0,0,1.09,17.56,12.83,12.83,0,0,0,8.46,2.79q27-.18,54-.3l7.56,0,.63,0c0,1.7,0,3.36,0,5.17-2.36,0-4.77-.05-7.17,0q-23.85.1-47.72.22c-3.13,0-6.26.14-9.37-.06a17.33,17.33,0,0,1-16-15,16.62,16.62,0,0,1,14.38-18.54,70,70,0,0,1,8.69-.31c18.8-.12,37.63-.12,56.43-.34,7.06-.09,11.57,4.47,12.57,10.7a14.3,14.3,0,0,1-2.79,11.55,11.08,11.08,0,0,1-9.14,4.19c-4.9,0-9.8.07-14.7.07l-42.39.21a9.78,9.78,0,0,1-9.39-6.51,9.67,9.67,0,0,1,9.27-12.36c7.29-.1,14.57-.1,21.85-.12l13.54-.07A10.88,10.88,0,0,0,341.55,510Z" transform="translate(-2.76 -143.3)"/><path class="cls-12" d="M373.71,512.11c-1.11-6.6-6-10.66-12.86-10.59-12.54.11-25.27.13-37.61.16-6.37,0-13,0-19.46,0h-1.61A53.77,53.77,0,0,0,295,502c-8.16,1.06-13.94,7.12-14.65,14.72h.23A16.19,16.19,0,0,1,295,502.27a46.76,46.76,0,0,1,6.14-.3h2.61c6.49,0,13.09,0,19.46,0,12.34-.05,25.09-.07,37.63-.19H361c6.63,0,11.39,4,12.45,10.42a13.48,13.48,0,0,1-2.76,11.2,11.23,11.23,0,0,1-9.17,4.06c-3.67,0-7.34,0-11,.05l-13.29,0-33.43.09h0c-4.24,0-8.16-2.65-9.36-6.3a8.66,8.66,0,0,1,1.4-8,9.93,9.93,0,0,1,3.72-3l.16-.32a10,10,0,0,0-4.08,3.2,8.87,8.87,0,0,0-1.43,8.17c1.22,3.76,5.24,6.49,9.59,6.49h0l33.43-.1,13.27,0c3.67,0,7.35,0,11,0a11.6,11.6,0,0,0,9.35-4.15A13.6,13.6,0,0,0,373.71,512.11Z" transform="translate(-2.76 -143.3)"/><path class="cls-12" d="M358.52,534.84c-1.64,0-3.31,0-5,0l-21.91.07-26.34.07c-.79,0-1.56,0-2.36,0-2.33,0-4.74,0-7.1-.11-7.48-.5-14-6-15.72-12.77h-.24a16.67,16.67,0,0,0,5,8.3,18,18,0,0,0,10.93,4.67c1.48.09,3,.14,4.47.14.88,0,1.77,0,2.65,0s1.57,0,2.36,0l26.34-.06,21.91-.07c1.65,0,3.35,0,5,0l1.65,0v-.22Z" transform="translate(-2.76 -143.3)"/><rect class="cls-12" x="304.78" y="507.64" width="56.23" height="0.23" transform="translate(-5.24 -141.67) rotate(-0.28)"/><polygon class="cls-18" points="212.11 359.75 255.9 363.83 250.5 371.88 254.83 380.43 246 384.28 245.6 393.64 236.32 394.5 233.47 406.92 227.31 405.31 225.47 413.88 220.08 412.46 216.81 420.24 212.19 419.03 203.25 423.27 202.62 419.4 199.48 374.95 195.31 425.3 190.26 419.45 180.07 423.77 177.86 414.96 170.6 415.93 169.24 408.58 198.8 366.54 205.59 372.03 207.29 367.12 213.43 370.38 209.17 363.09 215.25 363.45 212.11 359.75"/><polygon class="cls-13" points="179 425.92 189.82 421.33 195.02 428.09 195.44 423.71 195.51 422.91 194.25 421.68 194.06 421.47 192.79 420 192.79 420 192.79 420 190.7 417.57 181.14 421.62 179.03 413.22 171.87 414.19 170 407.51 168.03 409.8 169.34 417.68 176.69 416.69 179 425.92"/><polygon class="cls-13" points="250.13 371.13 254.14 379.01 245.93 382.6 245.55 391.57 236.5 392.41 233.76 404.36 227.57 402.74 225.74 411.31 220.62 409.96 217.34 417.75 213.47 416.73 205.9 420.33 202.96 421.65 203.49 424.92 213.78 420.04 219.16 421.45 222.44 413.67 228.1 415.15 229.94 406.58 236.08 408.2 239.03 395.3 248.55 394.43 248.96 384.68 258.42 380.55 253.74 371.35 258.48 364.3 254.49 363.7 250.13 371.13"/><rect class="cls-19" x="4.15" y="451.69" width="40.7" height="139.01" transform="matrix(1, -0.02, 0.02, 1, -13.14, -142.71)"/><polygon class="cls-20" points="0 308.8 2.27 290.48 28.76 285.52 37.78 293.65 40.7 307.99 0 308.8"/><g class="cls-21"><path class="cls-1" d="M19.33,474l19,.33L38.25,478l-7.51-.14-.12,7,7.51.14-.06,3.64-19-.32.06-3.65,8.2.14.12-6.95-8.2-.14Z" transform="translate(-2.76 -143.3)"/><path class="cls-1" d="M18.59,495.88a4.14,4.14,0,0,1,.57-2.14,3.7,3.7,0,0,1,1.55-1.41,4.59,4.59,0,0,1,2.21-.47,4,4,0,0,1,3.53,2A14.12,14.12,0,0,1,28.08,500a3.66,3.66,0,0,0,1.27-.23,1.91,1.91,0,0,0,.9-.71,2.47,2.47,0,0,0,.35-1.38,4.87,4.87,0,0,0-.34-1.92,12.12,12.12,0,0,0-1-1.94l2.53-1.25a12.68,12.68,0,0,1,.92,1.75,12.35,12.35,0,0,1,.64,2,8.46,8.46,0,0,1,.24,2.12,5.62,5.62,0,0,1-.79,2.94A4.37,4.37,0,0,1,30.68,503a9.07,9.07,0,0,1-3.5.54l-8.37-.15.05-3,1.55-.21v-.12a8.64,8.64,0,0,1-1.32-2A4.87,4.87,0,0,1,18.59,495.88Zm2.92,1.27a2.76,2.76,0,0,0,.35,1.41,5.86,5.86,0,0,0,1,1.3l2.85.05a11.17,11.17,0,0,0-.54-2.69,3.41,3.41,0,0,0-.88-1.44,1.92,1.92,0,0,0-1.16-.44,1.43,1.43,0,0,0-1.24.49,2.21,2.21,0,0,0-.4,1.32Z" transform="translate(-2.76 -143.3)"/><path class="cls-1" d="M18.7,510.3l14.43-4.49-.06,3.68-7.19,1.89-2.17.55-2.2.52v.12l2.18.6,2.16.6L33,515.93l-.06,3.5-14.27-4.9Z" transform="translate(-2.76 -143.3)"/><path class="cls-1" d="M18.05,527.2a7,7,0,0,1,1-3.49,6.47,6.47,0,0,1,2.63-2.45,8.29,8.29,0,0,1,4.06-.87,8.52,8.52,0,0,1,3.12.59,7.08,7.08,0,0,1,2.34,1.51,6.61,6.61,0,0,1,1.48,2.11,5.87,5.87,0,0,1,.49,2.41,5.53,5.53,0,0,1-1,3.19,5.4,5.4,0,0,1-2.46,1.91,9,9,0,0,1-3.56.6c-.34,0-.67,0-1-.07a4.94,4.94,0,0,1-.75-.14l.15-8.57a4.5,4.5,0,0,0-1.95.64,3.23,3.23,0,0,0-1.23,1.31,4.3,4.3,0,0,0-.43,1.86,5,5,0,0,0,.22,1.59,7.06,7.06,0,0,0,.7,1.53l-2.32,1.2a8.92,8.92,0,0,1-1.12-2.3A8,8,0,0,1,18.05,527.2Zm9.05-3.3L27,529.59a3.75,3.75,0,0,0,2.3-.61,2.29,2.29,0,0,0,.89-2,2.8,2.8,0,0,0-.3-1.37,3,3,0,0,0-1-1.1A4.23,4.23,0,0,0,27.1,523.9Z" transform="translate(-2.76 -143.3)"/><path class="cls-1" d="M18.06,547.48l15.5.25a7.16,7.16,0,0,1,2.67.55,4.14,4.14,0,0,1,1.89,1.57,5,5,0,0,1,.65,2.81,6.37,6.37,0,0,1-.18,1.51,8.7,8.7,0,0,1-.35,1.13l-2.82-.72a3.47,3.47,0,0,0,.36-1.48,1.55,1.55,0,0,0-.52-1.26,2.67,2.67,0,0,0-1.71-.47L18,551.1Zm11.41-1.69,2.81.05.14,2.08-.1,6.09-3,0Z" transform="translate(-2.76 -143.3)"/><path class="cls-1" d="M17.49,560.25A3.66,3.66,0,0,1,19.07,557a7.58,7.58,0,0,1,4.25-.94l9,.15-.07,3.63-8.48-.14a4.19,4.19,0,0,0-2.34.43,1.71,1.71,0,0,0-.69,1.5,2.61,2.61,0,0,0,.4,1.49,5.58,5.58,0,0,0,1.35,1.35l9.68.17-.06,3.64L17.71,568l.05-3,2.08-.24v-.1a8.08,8.08,0,0,1-1.72-2A4.45,4.45,0,0,1,17.49,560.25Z" transform="translate(-2.76 -143.3)"/><path class="cls-1" d="M17.63,572l14.35.24-.05,3-1.9.25v.07a10.71,10.71,0,0,1,1.56,2A4.77,4.77,0,0,1,32.2,580a3.69,3.69,0,0,1-1.58,3.26,7.53,7.53,0,0,1-4.26.94l-8.94-.15.06-3.65,8.48.15a4.3,4.3,0,0,0,2.34-.42,1.68,1.68,0,0,0,.69-1.49,2.7,2.7,0,0,0-.38-1.49,8.9,8.9,0,0,0-1.18-1.42l-9.85-.18Z" transform="translate(-2.76 -143.3)"/></g><g class="cls-22"><rect class="cls-1" x="10.76" y="471.88" width="1.09" height="108.83" transform="matrix(1, -0.02, 0.02, 1, -13.25, -142.97)"/></g><polygon class="cls-20" points="2.75 446.95 2.81 449.72 43.51 448.9 43.42 444.48 2.75 446.95"/><g class="cls-6"><path class="cls-23" d="M369.24,239.8,168.46,305.29a2.47,2.47,0,0,0-1.58,3c0,.13.09.25.14.37L260.5,498.09a2.34,2.34,0,0,0,3.2,1,2.46,2.46,0,0,0,1.12-1.22L372.12,243a2.41,2.41,0,0,0-1.26-3.17A2.32,2.32,0,0,0,369.24,239.8Zm-67,73-35.79,85a4.56,4.56,0,0,1-8.32.36l-31-63.12a4.72,4.72,0,0,1,2.07-6.27,3.48,3.48,0,0,1,.69-.29l66.86-21.9A4.55,4.55,0,0,1,302.25,312.78Z" transform="translate(-2.76 -143.3)"/></g><path class="cls-24" d="M252.57,504.14h0L161.1,311a.32.32,0,0,1,.15-.41.3.3,0,0,1,.4.15h0l91.47,193.15a.3.3,0,0,1-.15.4A.3.3,0,0,1,252.57,504.14Z" transform="translate(-2.76 -143.3)"/><path class="cls-24" d="M163.28,311.53a.3.3,0,0,1,.14-.4l9.76-4.78a.31.31,0,0,1,.41.14h0a.31.31,0,0,1-.14.41l-9.76,4.77a.3.3,0,0,1-.41-.14Z" transform="translate(-2.76 -143.3)"/><path class="cls-24" d="M168.37,322a.31.31,0,0,1,.14-.41l6.57-3.21a.3.3,0,1,1,.27.54l-6.57,3.22a.31.31,0,0,1-.41-.14Z" transform="translate(-2.76 -143.3)"/><path class="cls-24" d="M173.37,332.18a.3.3,0,0,1,.14-.4l9.76-4.77a.31.31,0,0,1,.27.55l-9.77,4.76a.29.29,0,0,1-.4-.14Z" transform="translate(-2.76 -143.3)"/><path class="cls-24" d="M178.22,342.11a.3.3,0,0,1,.15-.4l6.56-3.2a.29.29,0,0,1,.4.14h0a.3.3,0,0,1-.14.4l-6.57,3.21a.3.3,0,0,1-.4-.14Z" transform="translate(-2.76 -143.3)"/><path class="cls-24" d="M183.22,352.35a.32.32,0,0,1,.15-.41l9.75-4.76a.31.31,0,0,1,.41.14h0a.3.3,0,0,1-.14.4l-9.76,4.76a.3.3,0,0,1-.4-.14Z" transform="translate(-2.76 -143.3)"/><path class="cls-24" d="M188.07,362.28a.3.3,0,0,1,.14-.4l6.58-3.21a.3.3,0,0,1,.4.14h0a.3.3,0,0,1-.14.4l-6.57,3.21a.31.31,0,0,1-.41-.14Z" transform="translate(-2.76 -143.3)"/><path class="cls-24" d="M193.07,372.52a.3.3,0,0,1,.14-.4l9.76-4.77a.3.3,0,0,1,.4.14h0a.3.3,0,0,1-.15.4l-9.75,4.76a.31.31,0,0,1-.41-.14Z" transform="translate(-2.76 -143.3)"/><path class="cls-24" d="M197.93,382.45a.3.3,0,0,1,.14-.4l6.56-3.2a.3.3,0,0,1,.41.13h0a.3.3,0,0,1-.14.4l-6.56,3.2a.3.3,0,0,1-.41-.14Z" transform="translate(-2.76 -143.3)"/><path class="cls-24" d="M202.93,392.69a.31.31,0,0,1,.14-.41l9.76-4.76a.3.3,0,0,1,.4.14h0a.31.31,0,0,1-.14.41l-9.75,4.76a.31.31,0,0,1-.41-.14Z" transform="translate(-2.76 -143.3)"/><path class="cls-24" d="M207.78,402.62a.3.3,0,0,1,.14-.4l6.56-3.2a.31.31,0,0,1,.41.14.3.3,0,0,1-.14.4l-6.57,3.2a.28.28,0,0,1-.4-.14Z" transform="translate(-2.76 -143.3)"/><path class="cls-24" d="M212.78,412.86a.31.31,0,0,1,.14-.41l9.75-4.76a.31.31,0,0,1,.41.14h0a.31.31,0,0,1-.14.41L213.19,413a.31.31,0,0,1-.41-.14Z" transform="translate(-2.76 -143.3)"/><path class="cls-24" d="M217.63,422.79a.3.3,0,0,1,.15-.4l6.56-3.21a.31.31,0,0,1,.41.14h0a.3.3,0,0,1-.14.4l-6.57,3.2a.3.3,0,0,1-.4-.14Z" transform="translate(-2.76 -143.3)"/><path class="cls-24" d="M222.63,433a.31.31,0,0,1,.14-.41l9.76-4.77a.3.3,0,0,1,.4.14h0a.31.31,0,0,1-.14.41L223,433.17a.3.3,0,0,1-.4-.14Z" transform="translate(-2.76 -143.3)"/><path class="cls-24" d="M227.48,443a.3.3,0,0,1,.14-.4l6.57-3.21a.3.3,0,0,1,.4.14h0a.29.29,0,0,1-.14.4l-6.56,3.2a.31.31,0,0,1-.41-.14Z" transform="translate(-2.76 -143.3)"/><path class="cls-24" d="M232.48,453.19a.3.3,0,0,1,.14-.4l9.75-4.77a.31.31,0,0,1,.41.14h0a.31.31,0,0,1-.14.41l-9.75,4.77a.31.31,0,0,1-.41-.14Z" transform="translate(-2.76 -143.3)"/><path class="cls-24" d="M237.34,463.13a.31.31,0,0,1,.14-.41l6.56-3.2a.31.31,0,0,1,.41.14h0a.31.31,0,0,1-.14.41l-6.56,3.2a.31.31,0,0,1-.41-.14Z" transform="translate(-2.76 -143.3)"/><path class="cls-24" d="M242.33,473.37a.31.31,0,0,1,.14-.41l9.76-4.77a.31.31,0,0,1,.41.14h0a.3.3,0,0,1-.14.4l-9.76,4.78a.31.31,0,0,1-.41-.14Z" transform="translate(-2.76 -143.3)"/><path class="cls-24" d="M247.19,483.3a.3.3,0,0,1,.14-.4l6.56-3.22a.31.31,0,0,1,.27.55l-6.56,3.21a.31.31,0,0,1-.41-.14Z" transform="translate(-2.76 -143.3)"/><path class="cls-24" d="M252.19,493.53a.3.3,0,0,1,.14-.4l9.75-4.77a.31.31,0,1,1,.27.55l-9.75,4.76a.3.3,0,0,1-.41-.13Z" transform="translate(-2.76 -143.3)"/><path class="cls-24" d="M257,503.47a.29.29,0,0,1,.14-.4l6.57-3.22a.3.3,0,0,1,.4.14.31.31,0,0,1-.14.41l-6.57,3.21a.29.29,0,0,1-.4-.14Z" transform="translate(-2.76 -143.3)"/><path class="cls-24" d="M192.75,288.5l0,0a.31.31,0,0,1,.19-.39l174.76-62.62a.3.3,0,0,1,.39.18.31.31,0,0,1-.19.39L193.12,288.65A.28.28,0,0,1,192.75,288.5Z" transform="translate(-2.76 -143.3)"/></svg>