<?xml version="1.0" encoding="utf-8"?>
<!-- Generator: Adobe Illustrator 23.1.0, SVG Export Plug-In . SVG Version: 6.00 Build 0)  -->
<svg version="1.1" id="圖層_1" xmlns="http://www.w3.org/2000/svg" xmlns:xlink="http://www.w3.org/1999/xlink" x="0px" y="0px"
	 viewBox="0 0 985.6 1164.9" style="enable-background:new 0 0 985.6 1164.9;" xml:space="preserve">
<style type="text/css">
	.st0{fill:#FFFFFF;}
	.st1{font-family:'BerlinSansFBDemi-Bold';}
	.st2{font-size:112.0052px;}
</style>
<rect x="44.8" y="36.6" class="st0" width="912.7" height="917.1"/>
<g transform="scale(44.802083333333)">
	<path d="M22,24c0,1.1-0.9,2-2,2H2c-1.1,0-2-0.9-2-2V2c0-1.1,0.9-2,2-2h18c1.1,0,2,0.9,2,2V24z M21,2.1C21,1.5,20.5,1,19.9,1H2.1
		C1.5,1,1,1.5,1,2.1v17.9C1,20.5,1.5,21,2.1,21h17.9c0.6,0,1.1-0.5,1.1-1.1L21,2.1L21,2.1z"/>
</g>
<g>
	<g transform="translate(342.125,158.125) scale(3.9483333333333)">
		<rect x="-11.3" y="-11.3" width="6" height="6"/>
	</g>
	<g transform="translate(365.125,158.125) scale(3.9483333333333)">
		<rect x="-11.3" y="-11.3" width="6" height="6"/>
	</g>
	<g transform="translate(411.125,158.125) scale(3.9483333333333)">
		<rect x="-11.3" y="-11.3" width="6" height="6"/>
	</g>
	<g transform="translate(572.125,158.125) scale(3.9483333333333)">
		<rect x="-11.3" y="-11.3" width="6" height="6"/>
	</g>
	<g transform="translate(595.125,158.125) scale(3.9483333333333)">
		<rect x="-11.3" y="-11.3" width="6" height="6"/>
	</g>
	<g transform="translate(618.125,158.125) scale(3.9483333333333)">
		<rect x="-11.3" y="-11.3" width="6" height="6"/>
	</g>
	<g transform="translate(687.125,158.125) scale(3.9483333333333)">
		<rect x="-11.3" y="-11.3" width="6" height="6"/>
	</g>
	<g transform="translate(365.125,181.125) scale(3.9483333333333)">
		<rect x="-11.3" y="-11.3" width="6" height="6"/>
	</g>
	<g transform="translate(434.125,181.125) scale(3.9483333333333)">
		<rect x="-11.3" y="-11.3" width="6" height="6"/>
	</g>
	<g transform="translate(480.125,181.125) scale(3.9483333333333)">
		<rect x="-11.3" y="-11.3" width="6" height="6"/>
	</g>
	<g transform="translate(503.125,181.125) scale(3.9483333333333)">
		<rect x="-11.3" y="-11.3" width="6" height="6"/>
	</g>
	<g transform="translate(526.125,181.125) scale(3.9483333333333)">
		<rect x="-11.3" y="-11.3" width="6" height="6"/>
	</g>
	<g transform="translate(572.125,181.125) scale(3.9483333333333)">
		<rect x="-11.3" y="-11.3" width="6" height="6"/>
	</g>
	<g transform="translate(618.125,181.125) scale(3.9483333333333)">
		<rect x="-11.3" y="-11.3" width="6" height="6"/>
	</g>
	<g transform="translate(641.125,181.125) scale(3.9483333333333)">
		<rect x="-11.3" y="-11.3" width="6" height="6"/>
	</g>
	<g transform="translate(664.125,181.125) scale(3.9483333333333)">
		<rect x="-11.3" y="-11.3" width="6" height="6"/>
	</g>
	<g transform="translate(365.125,204.125) scale(3.9483333333333)">
		<rect x="-11.3" y="-11.3" width="6" height="6"/>
	</g>
	<g transform="translate(434.125,204.125) scale(3.9483333333333)">
		<rect x="-11.3" y="-11.3" width="6" height="6"/>
	</g>
	<g transform="translate(503.125,204.125) scale(3.9483333333333)">
		<rect x="-11.3" y="-11.3" width="6" height="6"/>
	</g>
	<g transform="translate(526.125,204.125) scale(3.9483333333333)">
		<rect x="-11.3" y="-11.3" width="6" height="6"/>
	</g>
	<g transform="translate(595.125,204.125) scale(3.9483333333333)">
		<rect x="-11.3" y="-11.3" width="6" height="6"/>
	</g>
	<g transform="translate(641.125,204.125) scale(3.9483333333333)">
		<rect x="-11.3" y="-11.3" width="6" height="6"/>
	</g>
	<g transform="translate(710.125,204.125) scale(3.9483333333333)">
		<rect x="-11.3" y="-11.3" width="6" height="6"/>
	</g>
	<g transform="translate(388.125,227.125) scale(3.9483333333333)">
		<rect x="-11.3" y="-11.3" width="6" height="6"/>
	</g>
	<g transform="translate(434.125,227.125) scale(3.9483333333333)">
		<rect x="-11.3" y="-11.3" width="6" height="6"/>
	</g>
	<g transform="translate(503.125,227.125) scale(3.9483333333333)">
		<rect x="-11.3" y="-11.3" width="6" height="6"/>
	</g>
	<g transform="translate(526.125,227.125) scale(3.9483333333333)">
		<rect x="-11.3" y="-11.3" width="6" height="6"/>
	</g>
	<g transform="translate(572.125,227.125) scale(3.9483333333333)">
		<rect x="-11.3" y="-11.3" width="6" height="6"/>
	</g>
	<g transform="translate(641.125,227.125) scale(3.9483333333333)">
		<rect x="-11.3" y="-11.3" width="6" height="6"/>
	</g>
	<g transform="translate(664.125,227.125) scale(3.9483333333333)">
		<rect x="-11.3" y="-11.3" width="6" height="6"/>
	</g>
	<g transform="translate(687.125,227.125) scale(3.9483333333333)">
		<rect x="-11.3" y="-11.3" width="6" height="6"/>
	</g>
	<g transform="translate(710.125,227.125) scale(3.9483333333333)">
		<rect x="-11.3" y="-11.3" width="6" height="6"/>
	</g>
	<g transform="translate(342.125,250.125) scale(3.9483333333333)">
		<rect x="-11.3" y="-11.3" width="6" height="6"/>
	</g>
	<g transform="translate(388.125,250.125) scale(3.9483333333333)">
		<rect x="-11.3" y="-11.3" width="6" height="6"/>
	</g>
	<g transform="translate(457.125,250.125) scale(3.9483333333333)">
		<rect x="-11.3" y="-11.3" width="6" height="6"/>
	</g>
	<g transform="translate(503.125,250.125) scale(3.9483333333333)">
		<rect x="-11.3" y="-11.3" width="6" height="6"/>
	</g>
	<g transform="translate(526.125,250.125) scale(3.9483333333333)">
		<rect x="-11.3" y="-11.3" width="6" height="6"/>
	</g>
	<g transform="translate(549.125,250.125) scale(3.9483333333333)">
		<rect x="-11.3" y="-11.3" width="6" height="6"/>
	</g>
	<g transform="translate(618.125,250.125) scale(3.9483333333333)">
		<rect x="-11.3" y="-11.3" width="6" height="6"/>
	</g>
	<g transform="translate(664.125,250.125) scale(3.9483333333333)">
		<rect x="-11.3" y="-11.3" width="6" height="6"/>
	</g>
	<g transform="translate(687.125,250.125) scale(3.9483333333333)">
		<rect x="-11.3" y="-11.3" width="6" height="6"/>
	</g>
	<g transform="translate(342.125,273.125) scale(3.9483333333333)">
		<rect x="-11.3" y="-11.3" width="6" height="6"/>
	</g>
	<g transform="translate(434.125,273.125) scale(3.9483333333333)">
		<rect x="-11.3" y="-11.3" width="6" height="6"/>
	</g>
	<g transform="translate(503.125,273.125) scale(3.9483333333333)">
		<rect x="-11.3" y="-11.3" width="6" height="6"/>
	</g>
	<g transform="translate(549.125,273.125) scale(3.9483333333333)">
		<rect x="-11.3" y="-11.3" width="6" height="6"/>
	</g>
	<g transform="translate(595.125,273.125) scale(3.9483333333333)">
		<rect x="-11.3" y="-11.3" width="6" height="6"/>
	</g>
	<g transform="translate(664.125,273.125) scale(3.9483333333333)">
		<rect x="-11.3" y="-11.3" width="6" height="6"/>
	</g>
	<g transform="translate(342.125,296.125) scale(3.9483333333333)">
		<rect x="-11.3" y="-11.3" width="6" height="6"/>
	</g>
	<g transform="translate(388.125,296.125) scale(3.9483333333333)">
		<rect x="-11.3" y="-11.3" width="6" height="6"/>
	</g>
	<g transform="translate(434.125,296.125) scale(3.9483333333333)">
		<rect x="-11.3" y="-11.3" width="6" height="6"/>
	</g>
	<g transform="translate(480.125,296.125) scale(3.9483333333333)">
		<rect x="-11.3" y="-11.3" width="6" height="6"/>
	</g>
	<g transform="translate(526.125,296.125) scale(3.9483333333333)">
		<rect x="-11.3" y="-11.3" width="6" height="6"/>
	</g>
	<g transform="translate(572.125,296.125) scale(3.9483333333333)">
		<rect x="-11.3" y="-11.3" width="6" height="6"/>
	</g>
	<g transform="translate(618.125,296.125) scale(3.9483333333333)">
		<rect x="-11.3" y="-11.3" width="6" height="6"/>
	</g>
	<g transform="translate(664.125,296.125) scale(3.9483333333333)">
		<rect x="-11.3" y="-11.3" width="6" height="6"/>
	</g>
	<g transform="translate(710.125,296.125) scale(3.9483333333333)">
		<rect x="-11.3" y="-11.3" width="6" height="6"/>
	</g>
	<g transform="translate(388.125,319.125) scale(3.9483333333333)">
		<rect x="-11.3" y="-11.3" width="6" height="6"/>
	</g>
	<g transform="translate(411.125,319.125) scale(3.9483333333333)">
		<rect x="-11.3" y="-11.3" width="6" height="6"/>
	</g>
	<g transform="translate(434.125,319.125) scale(3.9483333333333)">
		<rect x="-11.3" y="-11.3" width="6" height="6"/>
	</g>
	<g transform="translate(457.125,319.125) scale(3.9483333333333)">
		<rect x="-11.3" y="-11.3" width="6" height="6"/>
	</g>
	<g transform="translate(503.125,319.125) scale(3.9483333333333)">
		<rect x="-11.3" y="-11.3" width="6" height="6"/>
	</g>
	<g transform="translate(526.125,319.125) scale(3.9483333333333)">
		<rect x="-11.3" y="-11.3" width="6" height="6"/>
	</g>
	<g transform="translate(595.125,319.125) scale(3.9483333333333)">
		<rect x="-11.3" y="-11.3" width="6" height="6"/>
	</g>
	<g transform="translate(618.125,319.125) scale(3.9483333333333)">
		<rect x="-11.3" y="-11.3" width="6" height="6"/>
	</g>
	<g transform="translate(641.125,319.125) scale(3.9483333333333)">
		<rect x="-11.3" y="-11.3" width="6" height="6"/>
	</g>
	<g transform="translate(664.125,319.125) scale(3.9483333333333)">
		<rect x="-11.3" y="-11.3" width="6" height="6"/>
	</g>
	<g transform="translate(687.125,319.125) scale(3.9483333333333)">
		<rect x="-11.3" y="-11.3" width="6" height="6"/>
	</g>
	<g transform="translate(181.125,342.125) scale(3.9483333333333)">
		<rect x="-11.3" y="-11.3" width="6" height="6"/>
	</g>
	<g transform="translate(204.125,342.125) scale(3.9483333333333)">
		<rect x="-11.3" y="-11.3" width="6" height="6"/>
	</g>
	<g transform="translate(227.125,342.125) scale(3.9483333333333)">
		<rect x="-11.3" y="-11.3" width="6" height="6"/>
	</g>
	<g transform="translate(250.125,342.125) scale(3.9483333333333)">
		<rect x="-11.3" y="-11.3" width="6" height="6"/>
	</g>
	<g transform="translate(273.125,342.125) scale(3.9483333333333)">
		<rect x="-11.3" y="-11.3" width="6" height="6"/>
	</g>
	<g transform="translate(296.125,342.125) scale(3.9483333333333)">
		<rect x="-11.3" y="-11.3" width="6" height="6"/>
	</g>
	<g transform="translate(319.125,342.125) scale(3.9483333333333)">
		<rect x="-11.3" y="-11.3" width="6" height="6"/>
	</g>
	<g transform="translate(365.125,342.125) scale(3.9483333333333)">
		<rect x="-11.3" y="-11.3" width="6" height="6"/>
	</g>
	<g transform="translate(388.125,342.125) scale(3.9483333333333)">
		<rect x="-11.3" y="-11.3" width="6" height="6"/>
	</g>
	<g transform="translate(411.125,342.125) scale(3.9483333333333)">
		<rect x="-11.3" y="-11.3" width="6" height="6"/>
	</g>
	<g transform="translate(457.125,342.125) scale(3.9483333333333)">
		<rect x="-11.3" y="-11.3" width="6" height="6"/>
	</g>
	<g transform="translate(480.125,342.125) scale(3.9483333333333)">
		<rect x="-11.3" y="-11.3" width="6" height="6"/>
	</g>
	<g transform="translate(549.125,342.125) scale(3.9483333333333)">
		<rect x="-11.3" y="-11.3" width="6" height="6"/>
	</g>
	<g transform="translate(595.125,342.125) scale(3.9483333333333)">
		<rect x="-11.3" y="-11.3" width="6" height="6"/>
	</g>
	<g transform="translate(664.125,342.125) scale(3.9483333333333)">
		<rect x="-11.3" y="-11.3" width="6" height="6"/>
	</g>
	<g transform="translate(779.125,342.125) scale(3.9483333333333)">
		<rect x="-11.3" y="-11.3" width="6" height="6"/>
	</g>
	<g transform="translate(802.125,342.125) scale(3.9483333333333)">
		<rect x="-11.3" y="-11.3" width="6" height="6"/>
	</g>
	<g transform="translate(894.125,342.125) scale(3.9483333333333)">
		<rect x="-11.3" y="-11.3" width="6" height="6"/>
	</g>
	<g transform="translate(158.125,365.125) scale(3.9483333333333)">
		<rect x="-11.3" y="-11.3" width="6" height="6"/>
	</g>
	<g transform="translate(181.125,365.125) scale(3.9483333333333)">
		<rect x="-11.3" y="-11.3" width="6" height="6"/>
	</g>
	<g transform="translate(250.125,365.125) scale(3.9483333333333)">
		<rect x="-11.3" y="-11.3" width="6" height="6"/>
	</g>
	<g transform="translate(342.125,365.125) scale(3.9483333333333)">
		<rect x="-11.3" y="-11.3" width="6" height="6"/>
	</g>
	<g transform="translate(365.125,365.125) scale(3.9483333333333)">
		<rect x="-11.3" y="-11.3" width="6" height="6"/>
	</g>
	<g transform="translate(480.125,365.125) scale(3.9483333333333)">
		<rect x="-11.3" y="-11.3" width="6" height="6"/>
	</g>
	<g transform="translate(549.125,365.125) scale(3.9483333333333)">
		<rect x="-11.3" y="-11.3" width="6" height="6"/>
	</g>
	<g transform="translate(572.125,365.125) scale(3.9483333333333)">
		<rect x="-11.3" y="-11.3" width="6" height="6"/>
	</g>
	<g transform="translate(595.125,365.125) scale(3.9483333333333)">
		<rect x="-11.3" y="-11.3" width="6" height="6"/>
	</g>
	<g transform="translate(618.125,365.125) scale(3.9483333333333)">
		<rect x="-11.3" y="-11.3" width="6" height="6"/>
	</g>
	<g transform="translate(641.125,365.125) scale(3.9483333333333)">
		<rect x="-11.3" y="-11.3" width="6" height="6"/>
	</g>
	<g transform="translate(664.125,365.125) scale(3.9483333333333)">
		<rect x="-11.3" y="-11.3" width="6" height="6"/>
	</g>
	<g transform="translate(687.125,365.125) scale(3.9483333333333)">
		<rect x="-11.3" y="-11.3" width="6" height="6"/>
	</g>
	<g transform="translate(756.125,365.125) scale(3.9483333333333)">
		<rect x="-11.3" y="-11.3" width="6" height="6"/>
	</g>
	<g transform="translate(779.125,365.125) scale(3.9483333333333)">
		<rect x="-11.3" y="-11.3" width="6" height="6"/>
	</g>
	<g transform="translate(825.125,365.125) scale(3.9483333333333)">
		<rect x="-11.3" y="-11.3" width="6" height="6"/>
	</g>
	<g transform="translate(848.125,365.125) scale(3.9483333333333)">
		<rect x="-11.3" y="-11.3" width="6" height="6"/>
	</g>
	<g transform="translate(894.125,365.125) scale(3.9483333333333)">
		<rect x="-11.3" y="-11.3" width="6" height="6"/>
	</g>
	<g transform="translate(204.125,388.125) scale(3.9483333333333)">
		<rect x="-11.3" y="-11.3" width="6" height="6"/>
	</g>
	<g transform="translate(227.125,388.125) scale(3.9483333333333)">
		<rect x="-11.3" y="-11.3" width="6" height="6"/>
	</g>
	<g transform="translate(296.125,388.125) scale(3.9483333333333)">
		<rect x="-11.3" y="-11.3" width="6" height="6"/>
	</g>
	<g transform="translate(319.125,388.125) scale(3.9483333333333)">
		<rect x="-11.3" y="-11.3" width="6" height="6"/>
	</g>
	<g transform="translate(388.125,388.125) scale(3.9483333333333)">
		<rect x="-11.3" y="-11.3" width="6" height="6"/>
	</g>
	<g transform="translate(434.125,388.125) scale(3.9483333333333)">
		<rect x="-11.3" y="-11.3" width="6" height="6"/>
	</g>
	<g transform="translate(457.125,388.125) scale(3.9483333333333)">
		<rect x="-11.3" y="-11.3" width="6" height="6"/>
	</g>
	<g transform="translate(480.125,388.125) scale(3.9483333333333)">
		<rect x="-11.3" y="-11.3" width="6" height="6"/>
	</g>
	<g transform="translate(549.125,388.125) scale(3.9483333333333)">
		<rect x="-11.3" y="-11.3" width="6" height="6"/>
	</g>
	<g transform="translate(664.125,388.125) scale(3.9483333333333)">
		<rect x="-11.3" y="-11.3" width="6" height="6"/>
	</g>
	<g transform="translate(710.125,388.125) scale(3.9483333333333)">
		<rect x="-11.3" y="-11.3" width="6" height="6"/>
	</g>
	<g transform="translate(733.125,388.125) scale(3.9483333333333)">
		<rect x="-11.3" y="-11.3" width="6" height="6"/>
	</g>
	<g transform="translate(802.125,388.125) scale(3.9483333333333)">
		<rect x="-11.3" y="-11.3" width="6" height="6"/>
	</g>
	<g transform="translate(848.125,388.125) scale(3.9483333333333)">
		<rect x="-11.3" y="-11.3" width="6" height="6"/>
	</g>
	<g transform="translate(871.125,388.125) scale(3.9483333333333)">
		<rect x="-11.3" y="-11.3" width="6" height="6"/>
	</g>
	<g transform="translate(158.125,411.125) scale(3.9483333333333)">
		<rect x="-11.3" y="-11.3" width="6" height="6"/>
	</g>
	<g transform="translate(181.125,411.125) scale(3.9483333333333)">
		<rect x="-11.3" y="-11.3" width="6" height="6"/>
	</g>
	<g transform="translate(250.125,411.125) scale(3.9483333333333)">
		<rect x="-11.3" y="-11.3" width="6" height="6"/>
	</g>
	<g transform="translate(319.125,411.125) scale(3.9483333333333)">
		<rect x="-11.3" y="-11.3" width="6" height="6"/>
	</g>
	<g transform="translate(342.125,411.125) scale(3.9483333333333)">
		<rect x="-11.3" y="-11.3" width="6" height="6"/>
	</g>
	<g transform="translate(411.125,411.125) scale(3.9483333333333)">
		<rect x="-11.3" y="-11.3" width="6" height="6"/>
	</g>
	<g transform="translate(434.125,411.125) scale(3.9483333333333)">
		<rect x="-11.3" y="-11.3" width="6" height="6"/>
	</g>
	<g transform="translate(457.125,411.125) scale(3.9483333333333)">
		<rect x="-11.3" y="-11.3" width="6" height="6"/>
	</g>
	<g transform="translate(480.125,411.125) scale(3.9483333333333)">
		<rect x="-11.3" y="-11.3" width="6" height="6"/>
	</g>
	<g transform="translate(549.125,411.125) scale(3.9483333333333)">
		<rect x="-11.3" y="-11.3" width="6" height="6"/>
	</g>
	<g transform="translate(572.125,411.125) scale(3.9483333333333)">
		<rect x="-11.3" y="-11.3" width="6" height="6"/>
	</g>
	<g transform="translate(595.125,411.125) scale(3.9483333333333)">
		<rect x="-11.3" y="-11.3" width="6" height="6"/>
	</g>
	<g transform="translate(618.125,411.125) scale(3.9483333333333)">
		<rect x="-11.3" y="-11.3" width="6" height="6"/>
	</g>
	<g transform="translate(641.125,411.125) scale(3.9483333333333)">
		<rect x="-11.3" y="-11.3" width="6" height="6"/>
	</g>
	<g transform="translate(687.125,411.125) scale(3.9483333333333)">
		<rect x="-11.3" y="-11.3" width="6" height="6"/>
	</g>
	<g transform="translate(756.125,411.125) scale(3.9483333333333)">
		<rect x="-11.3" y="-11.3" width="6" height="6"/>
	</g>
	<g transform="translate(802.125,411.125) scale(3.9483333333333)">
		<rect x="-11.3" y="-11.3" width="6" height="6"/>
	</g>
	<g transform="translate(825.125,411.125) scale(3.9483333333333)">
		<rect x="-11.3" y="-11.3" width="6" height="6"/>
	</g>
	<g transform="translate(848.125,411.125) scale(3.9483333333333)">
		<rect x="-11.3" y="-11.3" width="6" height="6"/>
	</g>
	<g transform="translate(871.125,411.125) scale(3.9483333333333)">
		<rect x="-11.3" y="-11.3" width="6" height="6"/>
	</g>
	<g transform="translate(894.125,411.125) scale(3.9483333333333)">
		<rect x="-11.3" y="-11.3" width="6" height="6"/>
	</g>
	<g transform="translate(158.125,434.125) scale(3.9483333333333)">
		<rect x="-11.3" y="-11.3" width="6" height="6"/>
	</g>
	<g transform="translate(204.125,434.125) scale(3.9483333333333)">
		<rect x="-11.3" y="-11.3" width="6" height="6"/>
	</g>
	<g transform="translate(273.125,434.125) scale(3.9483333333333)">
		<rect x="-11.3" y="-11.3" width="6" height="6"/>
	</g>
	<g transform="translate(296.125,434.125) scale(3.9483333333333)">
		<rect x="-11.3" y="-11.3" width="6" height="6"/>
	</g>
	<g transform="translate(365.125,434.125) scale(3.9483333333333)">
		<rect x="-11.3" y="-11.3" width="6" height="6"/>
	</g>
	<g transform="translate(411.125,434.125) scale(3.9483333333333)">
		<rect x="-11.3" y="-11.3" width="6" height="6"/>
	</g>
	<g transform="translate(434.125,434.125) scale(3.9483333333333)">
		<rect x="-11.3" y="-11.3" width="6" height="6"/>
	</g>
	<g transform="translate(480.125,434.125) scale(3.9483333333333)">
		<rect x="-11.3" y="-11.3" width="6" height="6"/>
	</g>
	<g transform="translate(595.125,434.125) scale(3.9483333333333)">
		<rect x="-11.3" y="-11.3" width="6" height="6"/>
	</g>
	<g transform="translate(664.125,434.125) scale(3.9483333333333)">
		<rect x="-11.3" y="-11.3" width="6" height="6"/>
	</g>
	<g transform="translate(687.125,434.125) scale(3.9483333333333)">
		<rect x="-11.3" y="-11.3" width="6" height="6"/>
	</g>
	<g transform="translate(802.125,434.125) scale(3.9483333333333)">
		<rect x="-11.3" y="-11.3" width="6" height="6"/>
	</g>
	<g transform="translate(825.125,434.125) scale(3.9483333333333)">
		<rect x="-11.3" y="-11.3" width="6" height="6"/>
	</g>
	<g transform="translate(871.125,434.125) scale(3.9483333333333)">
		<rect x="-11.3" y="-11.3" width="6" height="6"/>
	</g>
	<g transform="translate(158.125,457.125) scale(3.9483333333333)">
		<rect x="-11.3" y="-11.3" width="6" height="6"/>
	</g>
	<g transform="translate(204.125,457.125) scale(3.9483333333333)">
		<rect x="-11.3" y="-11.3" width="6" height="6"/>
	</g>
	<g transform="translate(250.125,457.125) scale(3.9483333333333)">
		<rect x="-11.3" y="-11.3" width="6" height="6"/>
	</g>
	<g transform="translate(273.125,457.125) scale(3.9483333333333)">
		<rect x="-11.3" y="-11.3" width="6" height="6"/>
	</g>
	<g transform="translate(365.125,457.125) scale(3.9483333333333)">
		<rect x="-11.3" y="-11.3" width="6" height="6"/>
	</g>
	<g transform="translate(388.125,457.125) scale(3.9483333333333)">
		<rect x="-11.3" y="-11.3" width="6" height="6"/>
	</g>
	<g transform="translate(480.125,457.125) scale(3.9483333333333)">
		<rect x="-11.3" y="-11.3" width="6" height="6"/>
	</g>
	<g transform="translate(503.125,457.125) scale(3.9483333333333)">
		<rect x="-11.3" y="-11.3" width="6" height="6"/>
	</g>
	<g transform="translate(572.125,457.125) scale(3.9483333333333)">
		<rect x="-11.3" y="-11.3" width="6" height="6"/>
	</g>
	<g transform="translate(641.125,457.125) scale(3.9483333333333)">
		<rect x="-11.3" y="-11.3" width="6" height="6"/>
	</g>
	<g transform="translate(687.125,457.125) scale(3.9483333333333)">
		<rect x="-11.3" y="-11.3" width="6" height="6"/>
	</g>
	<g transform="translate(733.125,457.125) scale(3.9483333333333)">
		<rect x="-11.3" y="-11.3" width="6" height="6"/>
	</g>
	<g transform="translate(756.125,457.125) scale(3.9483333333333)">
		<rect x="-11.3" y="-11.3" width="6" height="6"/>
	</g>
	<g transform="translate(848.125,457.125) scale(3.9483333333333)">
		<rect x="-11.3" y="-11.3" width="6" height="6"/>
	</g>
	<g transform="translate(871.125,457.125) scale(3.9483333333333)">
		<rect x="-11.3" y="-11.3" width="6" height="6"/>
	</g>
	<g transform="translate(894.125,457.125) scale(3.9483333333333)">
		<rect x="-11.3" y="-11.3" width="6" height="6"/>
	</g>
	<g transform="translate(158.125,480.125) scale(3.9483333333333)">
		<rect x="-11.3" y="-11.3" width="6" height="6"/>
	</g>
	<g transform="translate(227.125,480.125) scale(3.9483333333333)">
		<rect x="-11.3" y="-11.3" width="6" height="6"/>
	</g>
	<g transform="translate(250.125,480.125) scale(3.9483333333333)">
		<rect x="-11.3" y="-11.3" width="6" height="6"/>
	</g>
	<g transform="translate(273.125,480.125) scale(3.9483333333333)">
		<rect x="-11.3" y="-11.3" width="6" height="6"/>
	</g>
	<g transform="translate(296.125,480.125) scale(3.9483333333333)">
		<rect x="-11.3" y="-11.3" width="6" height="6"/>
	</g>
	<g transform="translate(342.125,480.125) scale(3.9483333333333)">
		<rect x="-11.3" y="-11.3" width="6" height="6"/>
	</g>
	<g transform="translate(365.125,480.125) scale(3.9483333333333)">
		<rect x="-11.3" y="-11.3" width="6" height="6"/>
	</g>
	<g transform="translate(388.125,480.125) scale(3.9483333333333)">
		<rect x="-11.3" y="-11.3" width="6" height="6"/>
	</g>
	<g transform="translate(411.125,480.125) scale(3.9483333333333)">
		<rect x="-11.3" y="-11.3" width="6" height="6"/>
	</g>
	<g transform="translate(457.125,480.125) scale(3.9483333333333)">
		<rect x="-11.3" y="-11.3" width="6" height="6"/>
	</g>
	<g transform="translate(503.125,480.125) scale(3.9483333333333)">
		<rect x="-11.3" y="-11.3" width="6" height="6"/>
	</g>
	<g transform="translate(526.125,480.125) scale(3.9483333333333)">
		<rect x="-11.3" y="-11.3" width="6" height="6"/>
	</g>
	<g transform="translate(641.125,480.125) scale(3.9483333333333)">
		<rect x="-11.3" y="-11.3" width="6" height="6"/>
	</g>
	<g transform="translate(664.125,480.125) scale(3.9483333333333)">
		<rect x="-11.3" y="-11.3" width="6" height="6"/>
	</g>
	<g transform="translate(710.125,480.125) scale(3.9483333333333)">
		<rect x="-11.3" y="-11.3" width="6" height="6"/>
	</g>
	<g transform="translate(733.125,480.125) scale(3.9483333333333)">
		<rect x="-11.3" y="-11.3" width="6" height="6"/>
	</g>
	<g transform="translate(756.125,480.125) scale(3.9483333333333)">
		<rect x="-11.3" y="-11.3" width="6" height="6"/>
	</g>
	<g transform="translate(802.125,480.125) scale(3.9483333333333)">
		<rect x="-11.3" y="-11.3" width="6" height="6"/>
	</g>
	<g transform="translate(825.125,480.125) scale(3.9483333333333)">
		<rect x="-11.3" y="-11.3" width="6" height="6"/>
	</g>
	<g transform="translate(848.125,480.125) scale(3.9483333333333)">
		<rect x="-11.3" y="-11.3" width="6" height="6"/>
	</g>
	<g transform="translate(871.125,480.125) scale(3.9483333333333)">
		<rect x="-11.3" y="-11.3" width="6" height="6"/>
	</g>
	<g transform="translate(204.125,503.125) scale(3.9483333333333)">
		<rect x="-11.3" y="-11.3" width="6" height="6"/>
	</g>
	<g transform="translate(227.125,503.125) scale(3.9483333333333)">
		<rect x="-11.3" y="-11.3" width="6" height="6"/>
	</g>
	<g transform="translate(250.125,503.125) scale(3.9483333333333)">
		<rect x="-11.3" y="-11.3" width="6" height="6"/>
	</g>
	<g transform="translate(434.125,503.125) scale(3.9483333333333)">
		<rect x="-11.3" y="-11.3" width="6" height="6"/>
	</g>
	<g transform="translate(526.125,503.125) scale(3.9483333333333)">
		<rect x="-11.3" y="-11.3" width="6" height="6"/>
	</g>
	<g transform="translate(572.125,503.125) scale(3.9483333333333)">
		<rect x="-11.3" y="-11.3" width="6" height="6"/>
	</g>
	<g transform="translate(641.125,503.125) scale(3.9483333333333)">
		<rect x="-11.3" y="-11.3" width="6" height="6"/>
	</g>
	<g transform="translate(664.125,503.125) scale(3.9483333333333)">
		<rect x="-11.3" y="-11.3" width="6" height="6"/>
	</g>
	<g transform="translate(733.125,503.125) scale(3.9483333333333)">
		<rect x="-11.3" y="-11.3" width="6" height="6"/>
	</g>
	<g transform="translate(756.125,503.125) scale(3.9483333333333)">
		<rect x="-11.3" y="-11.3" width="6" height="6"/>
	</g>
	<g transform="translate(802.125,503.125) scale(3.9483333333333)">
		<rect x="-11.3" y="-11.3" width="6" height="6"/>
	</g>
	<g transform="translate(825.125,503.125) scale(3.9483333333333)">
		<rect x="-11.3" y="-11.3" width="6" height="6"/>
	</g>
	<g transform="translate(848.125,503.125) scale(3.9483333333333)">
		<rect x="-11.3" y="-11.3" width="6" height="6"/>
	</g>
	<g transform="translate(158.125,526.125) scale(3.9483333333333)">
		<rect x="-11.3" y="-11.3" width="6" height="6"/>
	</g>
	<g transform="translate(181.125,526.125) scale(3.9483333333333)">
		<rect x="-11.3" y="-11.3" width="6" height="6"/>
	</g>
	<g transform="translate(227.125,526.125) scale(3.9483333333333)">
		<rect x="-11.3" y="-11.3" width="6" height="6"/>
	</g>
	<g transform="translate(273.125,526.125) scale(3.9483333333333)">
		<rect x="-11.3" y="-11.3" width="6" height="6"/>
	</g>
	<g transform="translate(296.125,526.125) scale(3.9483333333333)">
		<rect x="-11.3" y="-11.3" width="6" height="6"/>
	</g>
	<g transform="translate(342.125,526.125) scale(3.9483333333333)">
		<rect x="-11.3" y="-11.3" width="6" height="6"/>
	</g>
	<g transform="translate(434.125,526.125) scale(3.9483333333333)">
		<rect x="-11.3" y="-11.3" width="6" height="6"/>
	</g>
	<g transform="translate(457.125,526.125) scale(3.9483333333333)">
		<rect x="-11.3" y="-11.3" width="6" height="6"/>
	</g>
	<g transform="translate(549.125,526.125) scale(3.9483333333333)">
		<rect x="-11.3" y="-11.3" width="6" height="6"/>
	</g>
	<g transform="translate(664.125,526.125) scale(3.9483333333333)">
		<rect x="-11.3" y="-11.3" width="6" height="6"/>
	</g>
	<g transform="translate(687.125,526.125) scale(3.9483333333333)">
		<rect x="-11.3" y="-11.3" width="6" height="6"/>
	</g>
	<g transform="translate(710.125,526.125) scale(3.9483333333333)">
		<rect x="-11.3" y="-11.3" width="6" height="6"/>
	</g>
	<g transform="translate(733.125,526.125) scale(3.9483333333333)">
		<rect x="-11.3" y="-11.3" width="6" height="6"/>
	</g>
	<g transform="translate(779.125,526.125) scale(3.9483333333333)">
		<rect x="-11.3" y="-11.3" width="6" height="6"/>
	</g>
	<g transform="translate(802.125,526.125) scale(3.9483333333333)">
		<rect x="-11.3" y="-11.3" width="6" height="6"/>
	</g>
	<g transform="translate(825.125,526.125) scale(3.9483333333333)">
		<rect x="-11.3" y="-11.3" width="6" height="6"/>
	</g>
	<g transform="translate(894.125,526.125) scale(3.9483333333333)">
		<rect x="-11.3" y="-11.3" width="6" height="6"/>
	</g>
	<g transform="translate(181.125,549.125) scale(3.9483333333333)">
		<rect x="-11.3" y="-11.3" width="6" height="6"/>
	</g>
	<g transform="translate(227.125,549.125) scale(3.9483333333333)">
		<rect x="-11.3" y="-11.3" width="6" height="6"/>
	</g>
	<g transform="translate(273.125,549.125) scale(3.9483333333333)">
		<rect x="-11.3" y="-11.3" width="6" height="6"/>
	</g>
	<g transform="translate(319.125,549.125) scale(3.9483333333333)">
		<rect x="-11.3" y="-11.3" width="6" height="6"/>
	</g>
	<g transform="translate(365.125,549.125) scale(3.9483333333333)">
		<rect x="-11.3" y="-11.3" width="6" height="6"/>
	</g>
	<g transform="translate(434.125,549.125) scale(3.9483333333333)">
		<rect x="-11.3" y="-11.3" width="6" height="6"/>
	</g>
	<g transform="translate(457.125,549.125) scale(3.9483333333333)">
		<rect x="-11.3" y="-11.3" width="6" height="6"/>
	</g>
	<g transform="translate(526.125,549.125) scale(3.9483333333333)">
		<rect x="-11.3" y="-11.3" width="6" height="6"/>
	</g>
	<g transform="translate(572.125,549.125) scale(3.9483333333333)">
		<rect x="-11.3" y="-11.3" width="6" height="6"/>
	</g>
	<g transform="translate(595.125,549.125) scale(3.9483333333333)">
		<rect x="-11.3" y="-11.3" width="6" height="6"/>
	</g>
	<g transform="translate(664.125,549.125) scale(3.9483333333333)">
		<rect x="-11.3" y="-11.3" width="6" height="6"/>
	</g>
	<g transform="translate(687.125,549.125) scale(3.9483333333333)">
		<rect x="-11.3" y="-11.3" width="6" height="6"/>
	</g>
	<g transform="translate(710.125,549.125) scale(3.9483333333333)">
		<rect x="-11.3" y="-11.3" width="6" height="6"/>
	</g>
	<g transform="translate(733.125,549.125) scale(3.9483333333333)">
		<rect x="-11.3" y="-11.3" width="6" height="6"/>
	</g>
	<g transform="translate(756.125,549.125) scale(3.9483333333333)">
		<rect x="-11.3" y="-11.3" width="6" height="6"/>
	</g>
	<g transform="translate(779.125,549.125) scale(3.9483333333333)">
		<rect x="-11.3" y="-11.3" width="6" height="6"/>
	</g>
	<g transform="translate(825.125,549.125) scale(3.9483333333333)">
		<rect x="-11.3" y="-11.3" width="6" height="6"/>
	</g>
	<g transform="translate(848.125,549.125) scale(3.9483333333333)">
		<rect x="-11.3" y="-11.3" width="6" height="6"/>
	</g>
	<g transform="translate(871.125,549.125) scale(3.9483333333333)">
		<rect x="-11.3" y="-11.3" width="6" height="6"/>
	</g>
	<g transform="translate(894.125,549.125) scale(3.9483333333333)">
		<rect x="-11.3" y="-11.3" width="6" height="6"/>
	</g>
	<g transform="translate(158.125,572.125) scale(3.9483333333333)">
		<rect x="-11.3" y="-11.3" width="6" height="6"/>
	</g>
	<g transform="translate(181.125,572.125) scale(3.9483333333333)">
		<rect x="-11.3" y="-11.3" width="6" height="6"/>
	</g>
	<g transform="translate(204.125,572.125) scale(3.9483333333333)">
		<rect x="-11.3" y="-11.3" width="6" height="6"/>
	</g>
	<g transform="translate(227.125,572.125) scale(3.9483333333333)">
		<rect x="-11.3" y="-11.3" width="6" height="6"/>
	</g>
	<g transform="translate(250.125,572.125) scale(3.9483333333333)">
		<rect x="-11.3" y="-11.3" width="6" height="6"/>
	</g>
	<g transform="translate(296.125,572.125) scale(3.9483333333333)">
		<rect x="-11.3" y="-11.3" width="6" height="6"/>
	</g>
	<g transform="translate(319.125,572.125) scale(3.9483333333333)">
		<rect x="-11.3" y="-11.3" width="6" height="6"/>
	</g>
	<g transform="translate(365.125,572.125) scale(3.9483333333333)">
		<rect x="-11.3" y="-11.3" width="6" height="6"/>
	</g>
	<g transform="translate(388.125,572.125) scale(3.9483333333333)">
		<rect x="-11.3" y="-11.3" width="6" height="6"/>
	</g>
	<g transform="translate(434.125,572.125) scale(3.9483333333333)">
		<rect x="-11.3" y="-11.3" width="6" height="6"/>
	</g>
	<g transform="translate(480.125,572.125) scale(3.9483333333333)">
		<rect x="-11.3" y="-11.3" width="6" height="6"/>
	</g>
	<g transform="translate(503.125,572.125) scale(3.9483333333333)">
		<rect x="-11.3" y="-11.3" width="6" height="6"/>
	</g>
	<g transform="translate(526.125,572.125) scale(3.9483333333333)">
		<rect x="-11.3" y="-11.3" width="6" height="6"/>
	</g>
	<g transform="translate(618.125,572.125) scale(3.9483333333333)">
		<rect x="-11.3" y="-11.3" width="6" height="6"/>
	</g>
	<g transform="translate(641.125,572.125) scale(3.9483333333333)">
		<rect x="-11.3" y="-11.3" width="6" height="6"/>
	</g>
	<g transform="translate(664.125,572.125) scale(3.9483333333333)">
		<rect x="-11.3" y="-11.3" width="6" height="6"/>
	</g>
	<g transform="translate(733.125,572.125) scale(3.9483333333333)">
		<rect x="-11.3" y="-11.3" width="6" height="6"/>
	</g>
	<g transform="translate(756.125,572.125) scale(3.9483333333333)">
		<rect x="-11.3" y="-11.3" width="6" height="6"/>
	</g>
	<g transform="translate(779.125,572.125) scale(3.9483333333333)">
		<rect x="-11.3" y="-11.3" width="6" height="6"/>
	</g>
	<g transform="translate(802.125,572.125) scale(3.9483333333333)">
		<rect x="-11.3" y="-11.3" width="6" height="6"/>
	</g>
	<g transform="translate(848.125,572.125) scale(3.9483333333333)">
		<rect x="-11.3" y="-11.3" width="6" height="6"/>
	</g>
	<g transform="translate(871.125,572.125) scale(3.9483333333333)">
		<rect x="-11.3" y="-11.3" width="6" height="6"/>
	</g>
	<g transform="translate(158.125,595.125) scale(3.9483333333333)">
		<rect x="-11.3" y="-11.3" width="6" height="6"/>
	</g>
	<g transform="translate(204.125,595.125) scale(3.9483333333333)">
		<rect x="-11.3" y="-11.3" width="6" height="6"/>
	</g>
	<g transform="translate(250.125,595.125) scale(3.9483333333333)">
		<rect x="-11.3" y="-11.3" width="6" height="6"/>
	</g>
	<g transform="translate(273.125,595.125) scale(3.9483333333333)">
		<rect x="-11.3" y="-11.3" width="6" height="6"/>
	</g>
	<g transform="translate(342.125,595.125) scale(3.9483333333333)">
		<rect x="-11.3" y="-11.3" width="6" height="6"/>
	</g>
	<g transform="translate(365.125,595.125) scale(3.9483333333333)">
		<rect x="-11.3" y="-11.3" width="6" height="6"/>
	</g>
	<g transform="translate(388.125,595.125) scale(3.9483333333333)">
		<rect x="-11.3" y="-11.3" width="6" height="6"/>
	</g>
	<g transform="translate(457.125,595.125) scale(3.9483333333333)">
		<rect x="-11.3" y="-11.3" width="6" height="6"/>
	</g>
	<g transform="translate(618.125,595.125) scale(3.9483333333333)">
		<rect x="-11.3" y="-11.3" width="6" height="6"/>
	</g>
	<g transform="translate(641.125,595.125) scale(3.9483333333333)">
		<rect x="-11.3" y="-11.3" width="6" height="6"/>
	</g>
	<g transform="translate(687.125,595.125) scale(3.9483333333333)">
		<rect x="-11.3" y="-11.3" width="6" height="6"/>
	</g>
	<g transform="translate(733.125,595.125) scale(3.9483333333333)">
		<rect x="-11.3" y="-11.3" width="6" height="6"/>
	</g>
	<g transform="translate(779.125,595.125) scale(3.9483333333333)">
		<rect x="-11.3" y="-11.3" width="6" height="6"/>
	</g>
	<g transform="translate(802.125,595.125) scale(3.9483333333333)">
		<rect x="-11.3" y="-11.3" width="6" height="6"/>
	</g>
	<g transform="translate(825.125,595.125) scale(3.9483333333333)">
		<rect x="-11.3" y="-11.3" width="6" height="6"/>
	</g>
	<g transform="translate(848.125,595.125) scale(3.9483333333333)">
		<rect x="-11.3" y="-11.3" width="6" height="6"/>
	</g>
	<g transform="translate(871.125,595.125) scale(3.9483333333333)">
		<rect x="-11.3" y="-11.3" width="6" height="6"/>
	</g>
	<g transform="translate(894.125,595.125) scale(3.9483333333333)">
		<rect x="-11.3" y="-11.3" width="6" height="6"/>
	</g>
	<g transform="translate(204.125,618.125) scale(3.9483333333333)">
		<rect x="-11.3" y="-11.3" width="6" height="6"/>
	</g>
	<g transform="translate(250.125,618.125) scale(3.9483333333333)">
		<rect x="-11.3" y="-11.3" width="6" height="6"/>
	</g>
	<g transform="translate(296.125,618.125) scale(3.9483333333333)">
		<rect x="-11.3" y="-11.3" width="6" height="6"/>
	</g>
	<g transform="translate(411.125,618.125) scale(3.9483333333333)">
		<rect x="-11.3" y="-11.3" width="6" height="6"/>
	</g>
	<g transform="translate(434.125,618.125) scale(3.9483333333333)">
		<rect x="-11.3" y="-11.3" width="6" height="6"/>
	</g>
	<g transform="translate(457.125,618.125) scale(3.9483333333333)">
		<rect x="-11.3" y="-11.3" width="6" height="6"/>
	</g>
	<g transform="translate(480.125,618.125) scale(3.9483333333333)">
		<rect x="-11.3" y="-11.3" width="6" height="6"/>
	</g>
	<g transform="translate(526.125,618.125) scale(3.9483333333333)">
		<rect x="-11.3" y="-11.3" width="6" height="6"/>
	</g>
	<g transform="translate(572.125,618.125) scale(3.9483333333333)">
		<rect x="-11.3" y="-11.3" width="6" height="6"/>
	</g>
	<g transform="translate(618.125,618.125) scale(3.9483333333333)">
		<rect x="-11.3" y="-11.3" width="6" height="6"/>
	</g>
	<g transform="translate(664.125,618.125) scale(3.9483333333333)">
		<rect x="-11.3" y="-11.3" width="6" height="6"/>
	</g>
	<g transform="translate(710.125,618.125) scale(3.9483333333333)">
		<rect x="-11.3" y="-11.3" width="6" height="6"/>
	</g>
	<g transform="translate(733.125,618.125) scale(3.9483333333333)">
		<rect x="-11.3" y="-11.3" width="6" height="6"/>
	</g>
	<g transform="translate(802.125,618.125) scale(3.9483333333333)">
		<rect x="-11.3" y="-11.3" width="6" height="6"/>
	</g>
	<g transform="translate(825.125,618.125) scale(3.9483333333333)">
		<rect x="-11.3" y="-11.3" width="6" height="6"/>
	</g>
	<g transform="translate(871.125,618.125) scale(3.9483333333333)">
		<rect x="-11.3" y="-11.3" width="6" height="6"/>
	</g>
	<g transform="translate(894.125,618.125) scale(3.9483333333333)">
		<rect x="-11.3" y="-11.3" width="6" height="6"/>
	</g>
	<g transform="translate(158.125,641.125) scale(3.9483333333333)">
		<rect x="-11.3" y="-11.3" width="6" height="6"/>
	</g>
	<g transform="translate(181.125,641.125) scale(3.9483333333333)">
		<rect x="-11.3" y="-11.3" width="6" height="6"/>
	</g>
	<g transform="translate(204.125,641.125) scale(3.9483333333333)">
		<rect x="-11.3" y="-11.3" width="6" height="6"/>
	</g>
	<g transform="translate(227.125,641.125) scale(3.9483333333333)">
		<rect x="-11.3" y="-11.3" width="6" height="6"/>
	</g>
	<g transform="translate(273.125,641.125) scale(3.9483333333333)">
		<rect x="-11.3" y="-11.3" width="6" height="6"/>
	</g>
	<g transform="translate(388.125,641.125) scale(3.9483333333333)">
		<rect x="-11.3" y="-11.3" width="6" height="6"/>
	</g>
	<g transform="translate(457.125,641.125) scale(3.9483333333333)">
		<rect x="-11.3" y="-11.3" width="6" height="6"/>
	</g>
	<g transform="translate(526.125,641.125) scale(3.9483333333333)">
		<rect x="-11.3" y="-11.3" width="6" height="6"/>
	</g>
	<g transform="translate(572.125,641.125) scale(3.9483333333333)">
		<rect x="-11.3" y="-11.3" width="6" height="6"/>
	</g>
	<g transform="translate(595.125,641.125) scale(3.9483333333333)">
		<rect x="-11.3" y="-11.3" width="6" height="6"/>
	</g>
	<g transform="translate(641.125,641.125) scale(3.9483333333333)">
		<rect x="-11.3" y="-11.3" width="6" height="6"/>
	</g>
	<g transform="translate(687.125,641.125) scale(3.9483333333333)">
		<rect x="-11.3" y="-11.3" width="6" height="6"/>
	</g>
	<g transform="translate(733.125,641.125) scale(3.9483333333333)">
		<rect x="-11.3" y="-11.3" width="6" height="6"/>
	</g>
	<g transform="translate(779.125,641.125) scale(3.9483333333333)">
		<rect x="-11.3" y="-11.3" width="6" height="6"/>
	</g>
	<g transform="translate(825.125,641.125) scale(3.9483333333333)">
		<rect x="-11.3" y="-11.3" width="6" height="6"/>
	</g>
	<g transform="translate(848.125,641.125) scale(3.9483333333333)">
		<rect x="-11.3" y="-11.3" width="6" height="6"/>
	</g>
	<g transform="translate(894.125,641.125) scale(3.9483333333333)">
		<rect x="-11.3" y="-11.3" width="6" height="6"/>
	</g>
	<g transform="translate(158.125,664.125) scale(3.9483333333333)">
		<rect x="-11.3" y="-11.3" width="6" height="6"/>
	</g>
	<g transform="translate(204.125,664.125) scale(3.9483333333333)">
		<rect x="-11.3" y="-11.3" width="6" height="6"/>
	</g>
	<g transform="translate(273.125,664.125) scale(3.9483333333333)">
		<rect x="-11.3" y="-11.3" width="6" height="6"/>
	</g>
	<g transform="translate(296.125,664.125) scale(3.9483333333333)">
		<rect x="-11.3" y="-11.3" width="6" height="6"/>
	</g>
	<g transform="translate(342.125,664.125) scale(3.9483333333333)">
		<rect x="-11.3" y="-11.3" width="6" height="6"/>
	</g>
	<g transform="translate(388.125,664.125) scale(3.9483333333333)">
		<rect x="-11.3" y="-11.3" width="6" height="6"/>
	</g>
	<g transform="translate(457.125,664.125) scale(3.9483333333333)">
		<rect x="-11.3" y="-11.3" width="6" height="6"/>
	</g>
	<g transform="translate(526.125,664.125) scale(3.9483333333333)">
		<rect x="-11.3" y="-11.3" width="6" height="6"/>
	</g>
	<g transform="translate(549.125,664.125) scale(3.9483333333333)">
		<rect x="-11.3" y="-11.3" width="6" height="6"/>
	</g>
	<g transform="translate(572.125,664.125) scale(3.9483333333333)">
		<rect x="-11.3" y="-11.3" width="6" height="6"/>
	</g>
	<g transform="translate(641.125,664.125) scale(3.9483333333333)">
		<rect x="-11.3" y="-11.3" width="6" height="6"/>
	</g>
	<g transform="translate(664.125,664.125) scale(3.9483333333333)">
		<rect x="-11.3" y="-11.3" width="6" height="6"/>
	</g>
	<g transform="translate(710.125,664.125) scale(3.9483333333333)">
		<rect x="-11.3" y="-11.3" width="6" height="6"/>
	</g>
	<g transform="translate(733.125,664.125) scale(3.9483333333333)">
		<rect x="-11.3" y="-11.3" width="6" height="6"/>
	</g>
	<g transform="translate(779.125,664.125) scale(3.9483333333333)">
		<rect x="-11.3" y="-11.3" width="6" height="6"/>
	</g>
	<g transform="translate(848.125,664.125) scale(3.9483333333333)">
		<rect x="-11.3" y="-11.3" width="6" height="6"/>
	</g>
	<g transform="translate(871.125,664.125) scale(3.9483333333333)">
		<rect x="-11.3" y="-11.3" width="6" height="6"/>
	</g>
	<g transform="translate(158.125,687.125) scale(3.9483333333333)">
		<rect x="-11.3" y="-11.3" width="6" height="6"/>
	</g>
	<g transform="translate(204.125,687.125) scale(3.9483333333333)">
		<rect x="-11.3" y="-11.3" width="6" height="6"/>
	</g>
	<g transform="translate(227.125,687.125) scale(3.9483333333333)">
		<rect x="-11.3" y="-11.3" width="6" height="6"/>
	</g>
	<g transform="translate(319.125,687.125) scale(3.9483333333333)">
		<rect x="-11.3" y="-11.3" width="6" height="6"/>
	</g>
	<g transform="translate(342.125,687.125) scale(3.9483333333333)">
		<rect x="-11.3" y="-11.3" width="6" height="6"/>
	</g>
	<g transform="translate(411.125,687.125) scale(3.9483333333333)">
		<rect x="-11.3" y="-11.3" width="6" height="6"/>
	</g>
	<g transform="translate(503.125,687.125) scale(3.9483333333333)">
		<rect x="-11.3" y="-11.3" width="6" height="6"/>
	</g>
	<g transform="translate(526.125,687.125) scale(3.9483333333333)">
		<rect x="-11.3" y="-11.3" width="6" height="6"/>
	</g>
	<g transform="translate(549.125,687.125) scale(3.9483333333333)">
		<rect x="-11.3" y="-11.3" width="6" height="6"/>
	</g>
	<g transform="translate(595.125,687.125) scale(3.9483333333333)">
		<rect x="-11.3" y="-11.3" width="6" height="6"/>
	</g>
	<g transform="translate(641.125,687.125) scale(3.9483333333333)">
		<rect x="-11.3" y="-11.3" width="6" height="6"/>
	</g>
	<g transform="translate(687.125,687.125) scale(3.9483333333333)">
		<rect x="-11.3" y="-11.3" width="6" height="6"/>
	</g>
	<g transform="translate(733.125,687.125) scale(3.9483333333333)">
		<rect x="-11.3" y="-11.3" width="6" height="6"/>
	</g>
	<g transform="translate(756.125,687.125) scale(3.9483333333333)">
		<rect x="-11.3" y="-11.3" width="6" height="6"/>
	</g>
	<g transform="translate(779.125,687.125) scale(3.9483333333333)">
		<rect x="-11.3" y="-11.3" width="6" height="6"/>
	</g>
	<g transform="translate(802.125,687.125) scale(3.9483333333333)">
		<rect x="-11.3" y="-11.3" width="6" height="6"/>
	</g>
	<g transform="translate(825.125,687.125) scale(3.9483333333333)">
		<rect x="-11.3" y="-11.3" width="6" height="6"/>
	</g>
	<g transform="translate(848.125,687.125) scale(3.9483333333333)">
		<rect x="-11.3" y="-11.3" width="6" height="6"/>
	</g>
	<g transform="translate(871.125,687.125) scale(3.9483333333333)">
		<rect x="-11.3" y="-11.3" width="6" height="6"/>
	</g>
	<g transform="translate(894.125,687.125) scale(3.9483333333333)">
		<rect x="-11.3" y="-11.3" width="6" height="6"/>
	</g>
	<g transform="translate(158.125,710.125) scale(3.9483333333333)">
		<rect x="-11.3" y="-11.3" width="6" height="6"/>
	</g>
	<g transform="translate(227.125,710.125) scale(3.9483333333333)">
		<rect x="-11.3" y="-11.3" width="6" height="6"/>
	</g>
	<g transform="translate(273.125,710.125) scale(3.9483333333333)">
		<rect x="-11.3" y="-11.3" width="6" height="6"/>
	</g>
	<g transform="translate(296.125,710.125) scale(3.9483333333333)">
		<rect x="-11.3" y="-11.3" width="6" height="6"/>
	</g>
	<g transform="translate(434.125,710.125) scale(3.9483333333333)">
		<rect x="-11.3" y="-11.3" width="6" height="6"/>
	</g>
	<g transform="translate(526.125,710.125) scale(3.9483333333333)">
		<rect x="-11.3" y="-11.3" width="6" height="6"/>
	</g>
	<g transform="translate(572.125,710.125) scale(3.9483333333333)">
		<rect x="-11.3" y="-11.3" width="6" height="6"/>
	</g>
	<g transform="translate(595.125,710.125) scale(3.9483333333333)">
		<rect x="-11.3" y="-11.3" width="6" height="6"/>
	</g>
	<g transform="translate(664.125,710.125) scale(3.9483333333333)">
		<rect x="-11.3" y="-11.3" width="6" height="6"/>
	</g>
	<g transform="translate(687.125,710.125) scale(3.9483333333333)">
		<rect x="-11.3" y="-11.3" width="6" height="6"/>
	</g>
	<g transform="translate(710.125,710.125) scale(3.9483333333333)">
		<rect x="-11.3" y="-11.3" width="6" height="6"/>
	</g>
	<g transform="translate(733.125,710.125) scale(3.9483333333333)">
		<rect x="-11.3" y="-11.3" width="6" height="6"/>
	</g>
	<g transform="translate(756.125,710.125) scale(3.9483333333333)">
		<rect x="-11.3" y="-11.3" width="6" height="6"/>
	</g>
	<g transform="translate(779.125,710.125) scale(3.9483333333333)">
		<rect x="-11.3" y="-11.3" width="6" height="6"/>
	</g>
	<g transform="translate(802.125,710.125) scale(3.9483333333333)">
		<rect x="-11.3" y="-11.3" width="6" height="6"/>
	</g>
	<g transform="translate(894.125,710.125) scale(3.9483333333333)">
		<rect x="-11.3" y="-11.3" width="6" height="6"/>
	</g>
	<g transform="translate(342.125,733.125) scale(3.9483333333333)">
		<rect x="-11.3" y="-11.3" width="6" height="6"/>
	</g>
	<g transform="translate(434.125,733.125) scale(3.9483333333333)">
		<rect x="-11.3" y="-11.3" width="6" height="6"/>
	</g>
	<g transform="translate(457.125,733.125) scale(3.9483333333333)">
		<rect x="-11.3" y="-11.3" width="6" height="6"/>
	</g>
	<g transform="translate(480.125,733.125) scale(3.9483333333333)">
		<rect x="-11.3" y="-11.3" width="6" height="6"/>
	</g>
	<g transform="translate(595.125,733.125) scale(3.9483333333333)">
		<rect x="-11.3" y="-11.3" width="6" height="6"/>
	</g>
	<g transform="translate(618.125,733.125) scale(3.9483333333333)">
		<rect x="-11.3" y="-11.3" width="6" height="6"/>
	</g>
	<g transform="translate(641.125,733.125) scale(3.9483333333333)">
		<rect x="-11.3" y="-11.3" width="6" height="6"/>
	</g>
	<g transform="translate(664.125,733.125) scale(3.9483333333333)">
		<rect x="-11.3" y="-11.3" width="6" height="6"/>
	</g>
	<g transform="translate(687.125,733.125) scale(3.9483333333333)">
		<rect x="-11.3" y="-11.3" width="6" height="6"/>
	</g>
	<g transform="translate(710.125,733.125) scale(3.9483333333333)">
		<rect x="-11.3" y="-11.3" width="6" height="6"/>
	</g>
	<g transform="translate(802.125,733.125) scale(3.9483333333333)">
		<rect x="-11.3" y="-11.3" width="6" height="6"/>
	</g>
	<g transform="translate(848.125,733.125) scale(3.9483333333333)">
		<rect x="-11.3" y="-11.3" width="6" height="6"/>
	</g>
	<g transform="translate(894.125,733.125) scale(3.9483333333333)">
		<rect x="-11.3" y="-11.3" width="6" height="6"/>
	</g>
	<g transform="translate(342.125,756.125) scale(3.9483333333333)">
		<rect x="-11.3" y="-11.3" width="6" height="6"/>
	</g>
	<g transform="translate(365.125,756.125) scale(3.9483333333333)">
		<rect x="-11.3" y="-11.3" width="6" height="6"/>
	</g>
	<g transform="translate(388.125,756.125) scale(3.9483333333333)">
		<rect x="-11.3" y="-11.3" width="6" height="6"/>
	</g>
	<g transform="translate(480.125,756.125) scale(3.9483333333333)">
		<rect x="-11.3" y="-11.3" width="6" height="6"/>
	</g>
	<g transform="translate(503.125,756.125) scale(3.9483333333333)">
		<rect x="-11.3" y="-11.3" width="6" height="6"/>
	</g>
	<g transform="translate(526.125,756.125) scale(3.9483333333333)">
		<rect x="-11.3" y="-11.3" width="6" height="6"/>
	</g>
	<g transform="translate(664.125,756.125) scale(3.9483333333333)">
		<rect x="-11.3" y="-11.3" width="6" height="6"/>
	</g>
	<g transform="translate(687.125,756.125) scale(3.9483333333333)">
		<rect x="-11.3" y="-11.3" width="6" height="6"/>
	</g>
	<g transform="translate(710.125,756.125) scale(3.9483333333333)">
		<rect x="-11.3" y="-11.3" width="6" height="6"/>
	</g>
	<g transform="translate(756.125,756.125) scale(3.9483333333333)">
		<rect x="-11.3" y="-11.3" width="6" height="6"/>
	</g>
	<g transform="translate(802.125,756.125) scale(3.9483333333333)">
		<rect x="-11.3" y="-11.3" width="6" height="6"/>
	</g>
	<g transform="translate(848.125,756.125) scale(3.9483333333333)">
		<rect x="-11.3" y="-11.3" width="6" height="6"/>
	</g>
	<g transform="translate(342.125,779.125) scale(3.9483333333333)">
		<rect x="-11.3" y="-11.3" width="6" height="6"/>
	</g>
	<g transform="translate(365.125,779.125) scale(3.9483333333333)">
		<rect x="-11.3" y="-11.3" width="6" height="6"/>
	</g>
	<g transform="translate(434.125,779.125) scale(3.9483333333333)">
		<rect x="-11.3" y="-11.3" width="6" height="6"/>
	</g>
	<g transform="translate(503.125,779.125) scale(3.9483333333333)">
		<rect x="-11.3" y="-11.3" width="6" height="6"/>
	</g>
	<g transform="translate(526.125,779.125) scale(3.9483333333333)">
		<rect x="-11.3" y="-11.3" width="6" height="6"/>
	</g>
	<g transform="translate(549.125,779.125) scale(3.9483333333333)">
		<rect x="-11.3" y="-11.3" width="6" height="6"/>
	</g>
	<g transform="translate(595.125,779.125) scale(3.9483333333333)">
		<rect x="-11.3" y="-11.3" width="6" height="6"/>
	</g>
	<g transform="translate(641.125,779.125) scale(3.9483333333333)">
		<rect x="-11.3" y="-11.3" width="6" height="6"/>
	</g>
	<g transform="translate(664.125,779.125) scale(3.9483333333333)">
		<rect x="-11.3" y="-11.3" width="6" height="6"/>
	</g>
	<g transform="translate(687.125,779.125) scale(3.9483333333333)">
		<rect x="-11.3" y="-11.3" width="6" height="6"/>
	</g>
	<g transform="translate(710.125,779.125) scale(3.9483333333333)">
		<rect x="-11.3" y="-11.3" width="6" height="6"/>
	</g>
	<g transform="translate(802.125,779.125) scale(3.9483333333333)">
		<rect x="-11.3" y="-11.3" width="6" height="6"/>
	</g>
	<g transform="translate(825.125,779.125) scale(3.9483333333333)">
		<rect x="-11.3" y="-11.3" width="6" height="6"/>
	</g>
	<g transform="translate(848.125,779.125) scale(3.9483333333333)">
		<rect x="-11.3" y="-11.3" width="6" height="6"/>
	</g>
	<g transform="translate(871.125,779.125) scale(3.9483333333333)">
		<rect x="-11.3" y="-11.3" width="6" height="6"/>
	</g>
	<g transform="translate(342.125,802.125) scale(3.9483333333333)">
		<rect x="-11.3" y="-11.3" width="6" height="6"/>
	</g>
	<g transform="translate(365.125,802.125) scale(3.9483333333333)">
		<rect x="-11.3" y="-11.3" width="6" height="6"/>
	</g>
	<g transform="translate(434.125,802.125) scale(3.9483333333333)">
		<rect x="-11.3" y="-11.3" width="6" height="6"/>
	</g>
	<g transform="translate(480.125,802.125) scale(3.9483333333333)">
		<rect x="-11.3" y="-11.3" width="6" height="6"/>
	</g>
	<g transform="translate(503.125,802.125) scale(3.9483333333333)">
		<rect x="-11.3" y="-11.3" width="6" height="6"/>
	</g>
	<g transform="translate(618.125,802.125) scale(3.9483333333333)">
		<rect x="-11.3" y="-11.3" width="6" height="6"/>
	</g>
	<g transform="translate(664.125,802.125) scale(3.9483333333333)">
		<rect x="-11.3" y="-11.3" width="6" height="6"/>
	</g>
	<g transform="translate(710.125,802.125) scale(3.9483333333333)">
		<rect x="-11.3" y="-11.3" width="6" height="6"/>
	</g>
	<g transform="translate(733.125,802.125) scale(3.9483333333333)">
		<rect x="-11.3" y="-11.3" width="6" height="6"/>
	</g>
	<g transform="translate(756.125,802.125) scale(3.9483333333333)">
		<rect x="-11.3" y="-11.3" width="6" height="6"/>
	</g>
	<g transform="translate(779.125,802.125) scale(3.9483333333333)">
		<rect x="-11.3" y="-11.3" width="6" height="6"/>
	</g>
	<g transform="translate(802.125,802.125) scale(3.9483333333333)">
		<rect x="-11.3" y="-11.3" width="6" height="6"/>
	</g>
	<g transform="translate(825.125,802.125) scale(3.9483333333333)">
		<rect x="-11.3" y="-11.3" width="6" height="6"/>
	</g>
	<g transform="translate(871.125,802.125) scale(3.9483333333333)">
		<rect x="-11.3" y="-11.3" width="6" height="6"/>
	</g>
	<g transform="translate(894.125,802.125) scale(3.9483333333333)">
		<rect x="-11.3" y="-11.3" width="6" height="6"/>
	</g>
	<g transform="translate(342.125,825.125) scale(3.9483333333333)">
		<rect x="-11.3" y="-11.3" width="6" height="6"/>
	</g>
	<g transform="translate(411.125,825.125) scale(3.9483333333333)">
		<rect x="-11.3" y="-11.3" width="6" height="6"/>
	</g>
	<g transform="translate(480.125,825.125) scale(3.9483333333333)">
		<rect x="-11.3" y="-11.3" width="6" height="6"/>
	</g>
	<g transform="translate(526.125,825.125) scale(3.9483333333333)">
		<rect x="-11.3" y="-11.3" width="6" height="6"/>
	</g>
	<g transform="translate(572.125,825.125) scale(3.9483333333333)">
		<rect x="-11.3" y="-11.3" width="6" height="6"/>
	</g>
	<g transform="translate(595.125,825.125) scale(3.9483333333333)">
		<rect x="-11.3" y="-11.3" width="6" height="6"/>
	</g>
	<g transform="translate(618.125,825.125) scale(3.9483333333333)">
		<rect x="-11.3" y="-11.3" width="6" height="6"/>
	</g>
	<g transform="translate(641.125,825.125) scale(3.9483333333333)">
		<rect x="-11.3" y="-11.3" width="6" height="6"/>
	</g>
	<g transform="translate(664.125,825.125) scale(3.9483333333333)">
		<rect x="-11.3" y="-11.3" width="6" height="6"/>
	</g>
	<g transform="translate(687.125,825.125) scale(3.9483333333333)">
		<rect x="-11.3" y="-11.3" width="6" height="6"/>
	</g>
	<g transform="translate(733.125,825.125) scale(3.9483333333333)">
		<rect x="-11.3" y="-11.3" width="6" height="6"/>
	</g>
	<g transform="translate(802.125,825.125) scale(3.9483333333333)">
		<rect x="-11.3" y="-11.3" width="6" height="6"/>
	</g>
	<g transform="translate(848.125,825.125) scale(3.9483333333333)">
		<rect x="-11.3" y="-11.3" width="6" height="6"/>
	</g>
	<g transform="translate(894.125,825.125) scale(3.9483333333333)">
		<rect x="-11.3" y="-11.3" width="6" height="6"/>
	</g>
	<g transform="translate(342.125,848.125) scale(3.9483333333333)">
		<rect x="-11.3" y="-11.3" width="6" height="6"/>
	</g>
	<g transform="translate(365.125,848.125) scale(3.9483333333333)">
		<rect x="-11.3" y="-11.3" width="6" height="6"/>
	</g>
	<g transform="translate(457.125,848.125) scale(3.9483333333333)">
		<rect x="-11.3" y="-11.3" width="6" height="6"/>
	</g>
	<g transform="translate(480.125,848.125) scale(3.9483333333333)">
		<rect x="-11.3" y="-11.3" width="6" height="6"/>
	</g>
	<g transform="translate(526.125,848.125) scale(3.9483333333333)">
		<rect x="-11.3" y="-11.3" width="6" height="6"/>
	</g>
	<g transform="translate(641.125,848.125) scale(3.9483333333333)">
		<rect x="-11.3" y="-11.3" width="6" height="6"/>
	</g>
	<g transform="translate(664.125,848.125) scale(3.9483333333333)">
		<rect x="-11.3" y="-11.3" width="6" height="6"/>
	</g>
	<g transform="translate(687.125,848.125) scale(3.9483333333333)">
		<rect x="-11.3" y="-11.3" width="6" height="6"/>
	</g>
	<g transform="translate(710.125,848.125) scale(3.9483333333333)">
		<rect x="-11.3" y="-11.3" width="6" height="6"/>
	</g>
	<g transform="translate(733.125,848.125) scale(3.9483333333333)">
		<rect x="-11.3" y="-11.3" width="6" height="6"/>
	</g>
	<g transform="translate(756.125,848.125) scale(3.9483333333333)">
		<rect x="-11.3" y="-11.3" width="6" height="6"/>
	</g>
	<g transform="translate(779.125,848.125) scale(3.9483333333333)">
		<rect x="-11.3" y="-11.3" width="6" height="6"/>
	</g>
	<g transform="translate(825.125,848.125) scale(3.9483333333333)">
		<rect x="-11.3" y="-11.3" width="6" height="6"/>
	</g>
	<g transform="translate(342.125,871.125) scale(3.9483333333333)">
		<rect x="-11.3" y="-11.3" width="6" height="6"/>
	</g>
	<g transform="translate(388.125,871.125) scale(3.9483333333333)">
		<rect x="-11.3" y="-11.3" width="6" height="6"/>
	</g>
	<g transform="translate(457.125,871.125) scale(3.9483333333333)">
		<rect x="-11.3" y="-11.3" width="6" height="6"/>
	</g>
	<g transform="translate(480.125,871.125) scale(3.9483333333333)">
		<rect x="-11.3" y="-11.3" width="6" height="6"/>
	</g>
	<g transform="translate(503.125,871.125) scale(3.9483333333333)">
		<rect x="-11.3" y="-11.3" width="6" height="6"/>
	</g>
	<g transform="translate(572.125,871.125) scale(3.9483333333333)">
		<rect x="-11.3" y="-11.3" width="6" height="6"/>
	</g>
	<g transform="translate(595.125,871.125) scale(3.9483333333333)">
		<rect x="-11.3" y="-11.3" width="6" height="6"/>
	</g>
	<g transform="translate(618.125,871.125) scale(3.9483333333333)">
		<rect x="-11.3" y="-11.3" width="6" height="6"/>
	</g>
	<g transform="translate(641.125,871.125) scale(3.9483333333333)">
		<rect x="-11.3" y="-11.3" width="6" height="6"/>
	</g>
	<g transform="translate(664.125,871.125) scale(3.9483333333333)">
		<rect x="-11.3" y="-11.3" width="6" height="6"/>
	</g>
	<g transform="translate(733.125,871.125) scale(3.9483333333333)">
		<rect x="-11.3" y="-11.3" width="6" height="6"/>
	</g>
	<g transform="translate(802.125,871.125) scale(3.9483333333333)">
		<rect x="-11.3" y="-11.3" width="6" height="6"/>
	</g>
	<g transform="translate(825.125,871.125) scale(3.9483333333333)">
		<rect x="-11.3" y="-11.3" width="6" height="6"/>
	</g>
	<g transform="translate(848.125,871.125) scale(3.9483333333333)">
		<rect x="-11.3" y="-11.3" width="6" height="6"/>
	</g>
	<g transform="translate(365.125,894.125) scale(3.9483333333333)">
		<rect x="-11.3" y="-11.3" width="6" height="6"/>
	</g>
	<g transform="translate(457.125,894.125) scale(3.9483333333333)">
		<rect x="-11.3" y="-11.3" width="6" height="6"/>
	</g>
	<g transform="translate(480.125,894.125) scale(3.9483333333333)">
		<rect x="-11.3" y="-11.3" width="6" height="6"/>
	</g>
	<g transform="translate(572.125,894.125) scale(3.9483333333333)">
		<rect x="-11.3" y="-11.3" width="6" height="6"/>
	</g>
	<g transform="translate(664.125,894.125) scale(3.9483333333333)">
		<rect x="-11.3" y="-11.3" width="6" height="6"/>
	</g>
	<g transform="translate(687.125,894.125) scale(3.9483333333333)">
		<rect x="-11.3" y="-11.3" width="6" height="6"/>
	</g>
	<g transform="translate(710.125,894.125) scale(3.9483333333333)">
		<rect x="-11.3" y="-11.3" width="6" height="6"/>
	</g>
	<g transform="translate(733.125,894.125) scale(3.9483333333333)">
		<rect x="-11.3" y="-11.3" width="6" height="6"/>
	</g>
	<g transform="translate(756.125,894.125) scale(3.9483333333333)">
		<rect x="-11.3" y="-11.3" width="6" height="6"/>
	</g>
	<g transform="translate(779.125,894.125) scale(3.9483333333333)">
		<rect x="-11.3" y="-11.3" width="6" height="6"/>
	</g>
	<g transform="translate(871.125,894.125) scale(3.9483333333333)">
		<rect x="-11.3" y="-11.3" width="6" height="6"/>
	</g>
	<g transform="translate(158.125,158.125)">
		<g transform="scale(11.5)">
			<path d="M-3.9-3.9v14h14v-14H-3.9z M8.1,8.1h-10v-10h10V8.1z"/>
		</g>
	</g>
	<g transform="translate(756.125,158.125)">
		<g transform="scale(11.5)">
			<path d="M-3.9-3.9v14h14v-14H-3.9z M8.1,8.1h-10v-10h10V8.1z"/>
		</g>
	</g>
	<g transform="translate(158.125,756.125)">
		<g transform="scale(11.5)">
			<path d="M-3.9-3.9v14h14v-14H-3.9z M8.1,8.1h-10v-10h10V8.1z"/>
		</g>
	</g>
	<g transform="translate(204.125,204.125)">
		<g transform="scale(11.5)">
			<rect x="-3.9" y="-3.9" width="6" height="6"/>
		</g>
	</g>
	<g transform="translate(802.125,204.125)">
		<g transform="scale(11.5)">
			<rect x="-3.9" y="-3.9" width="6" height="6"/>
		</g>
	</g>
	<g transform="translate(204.125,802.125)">
		<g transform="scale(11.5)">
			<rect x="-3.9" y="-3.9" width="6" height="6"/>
		</g>
	</g>
</g>
<g>
	<text transform="matrix(1 0 0 1 268.168 1090.855)" class="st0 st1 st2">SCAN ME</text>
</g>
</svg>
