<svg id="圖層_1" data-name="圖層 1" xmlns="http://www.w3.org/2000/svg" viewBox="0 0 98.45 106.02"><title>smile</title><path d="M41.78,97.72a23.58,23.58,0,0,1-11-2.75A26.61,26.61,0,0,1,17,66.83c2.58-15.35,13.29-28.21,19.45-34.51l6.93,6.77C38,44.58,28.68,55.69,26.54,68.44a17,17,0,0,0,8.77,17.94c2.71,1.41,9.78,4,16.78-2.9l6.79,6.92A24.34,24.34,0,0,1,41.78,97.72Z" transform="translate(-16.6 -24.69)"/><path d="M75.63,130.71c-9.83,0-18.34-7-22.25-15.27C44.25,96.1,57.27,75.26,74.21,63.19l5.62,7.9C69.64,78.35,54.45,95,62.15,111.31c3.06,6.49,10.37,11.79,17.88,8.84,3.24-1.28,6.31-3.81,9.13-7.52l7.72,5.86c-3.91,5.15-8.38,8.74-13.3,10.68A21.65,21.65,0,0,1,75.63,130.71Z" transform="translate(-16.6 -24.69)"/><circle cx="55.1" cy="11.01" r="11.01"/><circle cx="87.44" cy="39.6" r="11.01"/></svg>