<svg id="圖層_1" data-name="圖層 1" xmlns="http://www.w3.org/2000/svg" viewBox="0 0 421.92 437.54"><defs><style>.cls-1{fill:#ebc2c2;opacity:0.95;}.cls-2{fill:#86754b;}.cls-3{fill:#2c2d2d;}</style></defs><title>tape</title><path class="cls-1" d="M207.57,18.38C92.93,18.38,0,111.32,0,226S92.93,433.53,207.57,433.53,415.15,340.6,415.15,226,322.21,18.38,207.57,18.38Zm0,329.44A121.86,121.86,0,1,1,329.44,226,122,122,0,0,1,207.57,347.82Z" transform="translate(0 -3.81)"/><path class="cls-2" d="M207.57,104.1A121.86,121.86,0,1,0,329.44,226,122,122,0,0,0,207.57,104.1Zm0,237.1A115.24,115.24,0,1,1,322.82,226,115.38,115.38,0,0,1,207.57,341.2Z" transform="translate(0 -3.81)"/><path class="cls-3" d="M202.7,7c119.11,0,216,96.9,216,216a215.82,215.82,0,0,1-1.36,24.12l3.14.84a221.16,221.16,0,0,0,1.43-25c0-120.87-98.34-219.21-219.22-219.21a218.94,218.94,0,0,0-54.6,6.88l-3.17,4.18A215.59,215.59,0,0,1,202.7,7Z" transform="translate(0 -3.81)"/><path class="cls-3" d="M295.54,417.84c-95.27,49-214.95,7-266.78-93.66a219.91,219.91,0,0,1-9.41-20.94l-2.87.57A219.53,219.53,0,0,0,26.2,325.5c52.59,102.18,174.05,144.82,270.74,95.05a186.65,186.65,0,0,0,40.68-28.3l.71-4.84A184.1,184.1,0,0,1,295.54,417.84Z" transform="translate(0 -3.81)"/></svg>