<?xml version="1.0" encoding="utf-8"?>
<!-- Generator: Adobe Illustrator 23.1.0, SVG Export Plug-In . SVG Version: 6.00 Build 0)  -->
<svg version="1.1" id="圖層_1" xmlns="http://www.w3.org/2000/svg" xmlns:xlink="http://www.w3.org/1999/xlink" x="0px" y="0px"
	 viewBox="0 0 2246.8 2251" style="enable-background:new 0 0 2246.8 2251;" xml:space="preserve">
<style type="text/css">
	.st0{opacity:0.9;fill:#90D3F4;enable-background:new    ;}
	.st1{fill:none;stroke:#000000;stroke-width:6;stroke-linecap:round;stroke-miterlimit:10;}
</style>
<title>triangle</title>
<path class="st0" d="M346.4,64.7L75.1,2134.8c-1.7,13,7.5,25.1,20.5,27.1c1.3,0.2,2.6,0.3,3.9,0.3l2087.6-26.9
	c13.1-0.2,23.4-11.1,22.9-24.2c-0.2-5.6-2.4-11-6.1-15.2L387.5,52.7c-8.8-9.9-23.9-10.9-33.6-2.2C349.8,54.1,347.1,59.2,346.4,64.7z
	 M712,973.2l605.9,681.6c26.2,29.4,6.6,75.3-32.2,75.7l-695.4,8.1c-25.2,0.3-46.3-19.9-47.1-45.2c-0.1-2.5,0-5,0.4-7.4l89.5-689.7
	C638,957.8,685.9,943.8,712,973.2z"/>
<g>
	<line class="st1" x1="94.6" y1="2221.7" x2="2207.3" y2="2228.8"/>
	<line class="st1" x1="107.7" y1="2097.2" x2="108.7" y2="2204.6"/>
	<line class="st1" x1="222.7" y1="2131.3" x2="223.4" y2="2203.6"/>
	<line class="st1" x1="335" y1="2095.2" x2="335.9" y2="2202.6"/>
	<line class="st1" x1="444.6" y1="2129.4" x2="445.2" y2="2201.6"/>
	<line class="st1" x1="556.9" y1="2093.3" x2="557.8" y2="2200.6"/>
	<line class="st1" x1="666.5" y1="2127.4" x2="667.1" y2="2199.7"/>
	<line class="st1" x1="778.8" y1="2091.4" x2="779.7" y2="2198.7"/>
	<line class="st1" x1="888.4" y1="2125.5" x2="889" y2="2197.7"/>
	<line class="st1" x1="1000.7" y1="2089.4" x2="1001.6" y2="2196.7"/>
	<line class="st1" x1="1110.3" y1="2123.6" x2="1110.9" y2="2195.8"/>
	<line class="st1" x1="1222.6" y1="2087.5" x2="1223.5" y2="2194.8"/>
	<line class="st1" x1="1332.2" y1="2121.6" x2="1332.8" y2="2193.8"/>
	<line class="st1" x1="1444.4" y1="2085.5" x2="1445.4" y2="2192.9"/>
	<line class="st1" x1="1554.1" y1="2119.7" x2="1554.7" y2="2191.9"/>
	<line class="st1" x1="1666.3" y1="2083.6" x2="1667.3" y2="2190.9"/>
	<line class="st1" x1="1776" y1="2117.7" x2="1776.6" y2="2189.9"/>
	<line class="st1" x1="1888.2" y1="2081.6" x2="1889.2" y2="2189"/>
	<line class="st1" x1="1997.8" y1="2115.8" x2="1998.5" y2="2188"/>
	<line class="st1" x1="2110.1" y1="2079.7" x2="2111.1" y2="2187"/>
	<line class="st1" x1="2219.7" y1="2113.8" x2="2220.4" y2="2186.1"/>
</g>
<line class="st1" x1="214.8" y1="17.8" x2="28.8" y2="1843.6"/>
</svg>
